<?xml version="1.0" encoding="UTF-8" standalone="no"?>
<!DOCTYPE svg PUBLIC "-//W3C//DTD SVG 1.1//EN"
 "http://www.w3.org/Graphics/SVG/1.1/DTD/svg11.dtd">
<!-- Generated by graphviz version 16.1.0 (20260904.0139)
 -->
<!-- Title: G Pages: 1 -->
<svg width="2180pt" height="1174pt"
 viewBox="0.00 0.00 2180.00 1174.00" xmlns="http://www.w3.org/2000/svg" xmlns:xlink="http://www.w3.org/1999/xlink">
<g id="graph0" class="graph" transform="scale(1 1) rotate(0) translate(36 1137.6)">
<title>G</title>
<polygon fill="white" stroke="none" points="-36,36 -36,-1137.6 2143.65,-1137.6 2143.65,36 -36,36"/>
<text xml:space="preserve" text-anchor="middle" x="1053.83" y="-1076.9" font-family="Segoe UI" font-size="23.00">QUYỀN VÀ ĐỊA BÀN · MŨI TÊN CHA → CON GIỮ FK</text>
<!-- tenants&#45;&gt;tenant_memberships -->
<g id="edge18" class="edge">
<title>tenants&#45;&gt;tenant_memberships</title>
<path fill="none" stroke="#56667d" d="M1027.37,-994.3C800.7,-950.94 114,-819.6 114,-819.6 114,-819.6 114,-819.6 114,-436.8 114,-436.8 108.8,-366.77 104.73,-312.11"/>
<polygon fill="#56667d" stroke="#56667d" points="107.01,-311.98 104.26,-305.67 102.47,-312.32 107.01,-311.98"/>
<text xml:space="preserve" text-anchor="middle" x="136.33" y="-624.6" font-family="Segoe UI" font-size="12.00">tenant_id</text>
</g>
<!-- tenants&#45;&gt;scoped_user_roles -->
<g id="edge16" class="edge">
<title>tenants&#45;&gt;scoped_user_roles</title>
<path fill="none" stroke="#56667d" d="M1027.11,-970.09C982.64,-946.65 934,-921 934,-921 934,-921 859,-875.6 859,-875.6 859,-875.6 641,-190.4 641,-190.4 641,-190.4 583.65,-153.18 529.77,-118.21"/>
<polygon fill="#56667d" stroke="#56667d" points="531.18,-116.41 524.49,-114.78 528.7,-120.23 531.18,-116.41"/>
<text xml:space="preserve" text-anchor="middle" x="773.88" y="-529.4" font-family="Segoe UI" font-size="12.00">tenant_id</text>
</g>
<!-- tenants&#45;&gt;access_scopes -->
<g id="edge4" class="edge">
<title>tenants&#45;&gt;access_scopes</title>
<path fill="none" stroke="#56667d" d="M1042.76,-952.24C986.74,-896.68 909,-819.6 909,-819.6 909,-819.6 909,-819.6 909,-436.8 909,-436.8 990.79,-364.46 1053,-309.43"/>
<polygon fill="#56667d" stroke="#56667d" points="1054.46,-311.17 1057.82,-305.16 1051.45,-307.77 1054.46,-311.17"/>
<text xml:space="preserve" text-anchor="middle" x="931.33" y="-624.6" font-family="Segoe UI" font-size="12.00">tenant_id</text>
</g>
<!-- tenants&#45;&gt;sites -->
<g id="edge17" class="edge">
<title>tenants&#45;&gt;sites</title>
<path fill="none" stroke="#56667d" d="M1169.44,-952.24C1197.98,-929.65 1231.01,-903.5 1260.17,-880.42"/>
<polygon fill="#56667d" stroke="#56667d" points="1261.46,-882.3 1265.14,-876.48 1258.63,-878.73 1261.46,-882.3"/>
<text xml:space="preserve" text-anchor="middle" x="1247.46" y="-910.2" font-family="Segoe UI" font-size="12.00">tenant_id</text>
</g>
<!-- tenants&#45;&gt;zones -->
<g id="edge29" class="edge">
<title>tenants&#45;&gt;zones</title>
<path fill="none" stroke="#56667d" d="M1121.32,-952.09C1150.33,-879.39 1197.35,-761.6 1197.35,-761.6 1197.35,-761.6 1214.98,-726.05 1231.96,-691.79"/>
<polygon fill="#56667d" stroke="#56667d" points="1233.82,-693.16 1234.67,-686.32 1229.75,-691.13 1233.82,-693.16"/>
<text xml:space="preserve" text-anchor="middle" x="1219.67" y="-815" font-family="Segoe UI" font-size="12.00">tenant_id</text>
</g>
<!-- tenants&#45;&gt;buildings -->
<g id="edge7" class="edge">
<title>tenants&#45;&gt;buildings</title>
<path fill="none" stroke="#56667d" d="M1107.81,-952.24C1126.41,-834.48 1168,-571.2 1168,-571.2 1168,-571.2 1199.4,-535.05 1229.38,-500.53"/>
<polygon fill="#56667d" stroke="#56667d" points="1231.03,-502.11 1233.57,-495.71 1227.59,-499.12 1231.03,-502.11"/>
<text xml:space="preserve" text-anchor="middle" x="1166.8" y="-719.8" font-family="Segoe UI" font-size="12.00">tenant_id</text>
</g>
<!-- tenants&#45;&gt;units -->
<g id="edge26" class="edge">
<title>tenants&#45;&gt;units</title>
<path fill="none" stroke="#56667d" d="M1170.86,-990.95C1366.31,-944.57 1893,-819.6 1893,-819.6 1893,-819.6 1893,-819.6 1893,-532 1893,-532 1845,-380.8 1845,-380.8 1845,-380.8 1604.32,-310.92 1472.67,-272.69"/>
<polygon fill="#56667d" stroke="#56667d" points="1473.65,-270.61 1466.78,-270.98 1472.39,-274.98 1473.65,-270.61"/>
<text xml:space="preserve" text-anchor="middle" x="1915.33" y="-624.6" font-family="Segoe UI" font-size="12.00">tenant_id</text>
</g>
<!-- tenants&#45;&gt;unit_residents -->
<g id="edge20" class="edge">
<title>tenants&#45;&gt;unit_residents</title>
<path fill="none" stroke="#56667d" d="M1027,-960.57C969.33,-922.58 898,-875.6 898,-875.6 898,-875.6 851,-685.2 851,-685.2 851,-685.2 764,-145 764,-145 764,-145 755.66,-134.01 744.91,-119.84"/>
<polygon fill="#56667d" stroke="#56667d" points="746.83,-118.6 741.09,-114.8 743.2,-121.35 746.83,-118.6"/>
<text xml:space="preserve" text-anchor="middle" x="849.66" y="-529.4" font-family="Segoe UI" font-size="12.00">tenant_id</text>
</g>
<!-- tenants&#45;&gt;management_units -->
<g id="edge12" class="edge">
<title>tenants&#45;&gt;management_units</title>
<path fill="none" stroke="#56667d" d="M1170.65,-979.6C1268.79,-940.69 1433,-875.6 1433,-875.6 1433,-875.6 1604.61,-621.5 1686.05,-500.91"/>
<polygon fill="#56667d" stroke="#56667d" points="1687.74,-502.48 1689.49,-495.82 1683.97,-499.93 1687.74,-502.48"/>
<text xml:space="preserve" text-anchor="middle" x="1562.45" y="-719.8" font-family="Segoe UI" font-size="12.00">tenant_id</text>
</g>
<!-- tenants&#45;&gt;management_coverage -->
<g id="edge11" class="edge">
<title>tenants&#45;&gt;management_coverage</title>
<path fill="none" stroke="#56667d" d="M1170.86,-994.64C1351.64,-961.02 1811,-875.6 1811,-875.6 1811,-875.6 2063,-819.6 2063,-819.6 2063,-819.6 2063,-819.6 2063,-246.4 2063,-246.4 1997.22,-174.35 1947.02,-119.36"/>
<polygon fill="#56667d" stroke="#56667d" points="1948.99,-118.15 1942.93,-114.88 1945.63,-121.21 1948.99,-118.15"/>
<text xml:space="preserve" text-anchor="middle" x="2085.33" y="-529.4" font-family="Segoe UI" font-size="12.00">tenant_id</text>
</g>
<!-- users&#45;&gt;tenant_memberships -->
<g id="edge19" class="edge">
<title>users&#45;&gt;tenant_memberships</title>
<path fill="none" stroke="#56667d" d="M262.48,-380.96C241.38,-364.02 223.67,-349.8 223.67,-349.8 223.67,-349.8 200.38,-330.7 174.01,-309.08"/>
<polygon fill="#56667d" stroke="#56667d" points="175.63,-307.46 169.16,-305.1 172.74,-310.98 175.63,-307.46"/>
<text xml:space="preserve" text-anchor="middle" x="241.34" y="-339" font-family="Segoe UI" font-size="12.00">user_id</text>
</g>
<!-- users&#45;&gt;scoped_user_roles -->
<g id="edge13" class="edge">
<title>users&#45;&gt;scoped_user_roles</title>
<path fill="none" stroke="#56667d" d="M331.17,-381.03C330.62,-344.85 330.02,-304.4 330.02,-304.4 330.02,-304.4 330.02,-190.4 330.02,-190.4 330.02,-190.4 359.23,-154.25 387.12,-119.73"/>
<polygon fill="#56667d" stroke="#56667d" points="388.67,-121.43 390.99,-114.94 385.13,-118.57 388.67,-121.43"/>
<text xml:space="preserve" text-anchor="middle" x="357.01" y="-243.8" font-family="Segoe UI" font-size="12.00">granted_by</text>
</g>
<!-- users&#45;&gt;unit_residents -->
<g id="edge22" class="edge">
<title>users&#45;&gt;unit_residents</title>
<path fill="none" stroke="#56667d" d="M408.32,-391.01C443.25,-370.05 477,-349.8 477,-349.8 477,-349.8 585.96,-205.94 650.86,-120.24"/>
<polygon fill="#56667d" stroke="#56667d" points="652.63,-121.68 654.74,-115.12 649,-118.93 652.63,-121.68"/>
<text xml:space="preserve" text-anchor="middle" x="612.52" y="-243.8" font-family="Segoe UI" font-size="12.00">user_id</text>
</g>
<!-- users&#45;&gt;unit_residents -->
<g id="edge23" class="edge">
<title>users&#45;&gt;unit_residents</title>
<path fill="none" stroke="#56667d" d="M358.02,-380.89C391.86,-308.19 446.69,-190.4 446.69,-190.4 446.69,-190.4 541.43,-140.49 614.57,-101.96"/>
<polygon fill="#56667d" stroke="#56667d" points="615.54,-104.01 620.24,-98.97 613.42,-99.99 615.54,-104.01"/>
<text xml:space="preserve" text-anchor="middle" x="474.34" y="-243.8" font-family="Segoe UI" font-size="12.00">verified_by</text>
</g>
<!-- tenant_memberships&#45;&gt;scoped_user_roles -->
<g id="edge14" class="edge">
<title>tenant_memberships&#45;&gt;scoped_user_roles</title>
<path fill="none" stroke="#56667d" d="M146.37,-190.66C165.97,-167.09 184.35,-145 184.35,-145 184.35,-145 269.8,-115.57 341.32,-90.95"/>
<polygon fill="#56667d" stroke="#56667d" points="341.8,-93.19 347.2,-88.92 340.32,-88.89 341.8,-93.19"/>
<text xml:space="preserve" text-anchor="middle" x="221.67" y="-148.6" font-family="Segoe UI" font-size="12.00">membership_id</text>
</g>
<!-- access_scopes&#45;&gt;scoped_user_roles -->
<g id="edge15" class="edge">
<title>access_scopes&#45;&gt;scoped_user_roles</title>
<path fill="none" stroke="#56667d" d="M1045.53,-227.08C900.09,-190.33 598,-114 598,-114 598,-114 567.17,-103.28 532.49,-91.21"/>
<polygon fill="#56667d" stroke="#56667d" points="533.35,-89.11 526.47,-89.12 531.86,-93.4 533.35,-89.11"/>
<text xml:space="preserve" text-anchor="middle" x="788.82" y="-148.6" font-family="Segoe UI" font-size="12.00">scope_id</text>
</g>
<!-- access_scopes&#45;&gt;management_coverage -->
<g id="edge10" class="edge">
<title>access_scopes&#45;&gt;management_coverage</title>
<path fill="none" stroke="#56667d" d="M1198.17,-220.86C1242.21,-206.09 1289,-190.4 1289,-190.4 1289,-190.4 1598.79,-122.27 1773.91,-83.75"/>
<polygon fill="#56667d" stroke="#56667d" points="1774.3,-86 1780.16,-82.38 1773.32,-81.55 1774.3,-86"/>
<text xml:space="preserve" text-anchor="middle" x="1505.05" y="-148.6" font-family="Segoe UI" font-size="12.00">scope_id</text>
</g>
<!-- sites&#45;&gt;access_scopes -->
<g id="edge3" class="edge">
<title>sites&#45;&gt;access_scopes</title>
<path fill="none" stroke="#56667d" d="M1265.82,-761.83C1219.63,-725.65 1168,-685.2 1168,-685.2 1168,-685.2 1131,-540.2 1131,-540.2 1131,-540.2 1124,-494.8 1124,-494.8 1124,-494.8 1119,-349.8 1119,-349.8 1119,-349.8 1119,-335.4 1119,-335.4 1119,-335.4 1119.35,-325.18 1119.82,-311.74"/>
<polygon fill="#56667d" stroke="#56667d" points="1122.08,-312.08 1120.03,-305.5 1117.53,-311.92 1122.08,-312.08"/>
<text xml:space="preserve" text-anchor="middle" x="1147" y="-529.4" font-family="Segoe UI" font-size="12.00">site_id</text>
</g>
<!-- sites&#45;&gt;zones -->
<g id="edge28" class="edge">
<title>sites&#45;&gt;zones</title>
<path fill="none" stroke="#56667d" d="M1315.1,-761.84C1306.52,-740 1296.64,-714.85 1287.8,-692.35"/>
<polygon fill="#56667d" stroke="#56667d" points="1290.02,-691.77 1285.53,-686.55 1285.79,-693.43 1290.02,-691.77"/>
<text xml:space="preserve" text-anchor="middle" x="1318.22" y="-719.8" font-family="Segoe UI" font-size="12.00">site_id</text>
</g>
<!-- sites&#45;&gt;buildings -->
<g id="edge6" class="edge">
<title>sites&#45;&gt;buildings</title>
<path fill="none" stroke="#56667d" d="M1346.27,-761.83C1352.28,-725.65 1359,-685.2 1359,-685.2 1359,-685.2 1359,-571.2 1359,-571.2 1359,-571.2 1338.59,-535.65 1318.93,-501.39"/>
<polygon fill="#56667d" stroke="#56667d" points="1320.97,-500.38 1315.76,-495.88 1317.03,-502.65 1320.97,-500.38"/>
<text xml:space="preserve" text-anchor="middle" x="1375" y="-624.6" font-family="Segoe UI" font-size="12.00">site_id</text>
</g>
<!-- sites&#45;&gt;units -->
<g id="edge25" class="edge">
<title>sites&#45;&gt;units</title>
<path fill="none" stroke="#56667d" d="M1369.59,-762.01C1379.58,-744.96 1388,-730.6 1388,-730.6 1388,-730.6 1543,-349.8 1543,-349.8 1543,-349.8 1543,-335.4 1543,-335.4 1543,-335.4 1508.34,-315.82 1471.91,-295.24"/>
<polygon fill="#56667d" stroke="#56667d" points="1473.19,-293.35 1466.42,-292.13 1470.96,-297.31 1473.19,-293.35"/>
<text xml:space="preserve" text-anchor="middle" x="1486.86" y="-529.4" font-family="Segoe UI" font-size="12.00">site_id</text>
</g>
<!-- zones&#45;&gt;access_scopes -->
<g id="edge5" class="edge">
<title>zones&#45;&gt;access_scopes</title>
<path fill="none" stroke="#56667d" d="M1213.31,-571.43C1181.06,-535.25 1145.01,-494.8 1145.01,-494.8 1145.01,-494.8 1134.77,-385.15 1127.95,-312.14"/>
<polygon fill="#56667d" stroke="#56667d" points="1130.23,-312.08 1127.36,-305.82 1125.7,-312.5 1130.23,-312.08"/>
<text xml:space="preserve" text-anchor="middle" x="1164.01" y="-434.2" font-family="Segoe UI" font-size="12.00">zone_id</text>
</g>
<!-- zones&#45;&gt;buildings -->
<g id="edge8" class="edge">
<title>zones&#45;&gt;buildings</title>
<path fill="none" stroke="#56667d" d="M1268.92,-571.44C1271.22,-549.79 1273.86,-524.88 1276.23,-502.53"/>
<polygon fill="#56667d" stroke="#56667d" points="1278.48,-502.95 1276.9,-496.25 1273.95,-502.47 1278.48,-502.95"/>
<text xml:space="preserve" text-anchor="middle" x="1292.59" y="-529.4" font-family="Segoe UI" font-size="12.00">zone_id</text>
</g>
<!-- zones&#45;&gt;units -->
<g id="edge27" class="edge">
<title>zones&#45;&gt;units</title>
<path fill="none" stroke="#56667d" d="M1313.54,-571.43C1346.34,-535.25 1383,-494.8 1383,-494.8 1383,-494.8 1385.67,-385.15 1387.45,-312.14"/>
<polygon fill="#56667d" stroke="#56667d" points="1389.72,-312.38 1387.6,-305.83 1385.17,-312.27 1389.72,-312.38"/>
<text xml:space="preserve" text-anchor="middle" x="1404.69" y="-434.2" font-family="Segoe UI" font-size="12.00">zone_id</text>
</g>
<!-- buildings&#45;&gt;access_scopes -->
<g id="edge1" class="edge">
<title>buildings&#45;&gt;access_scopes</title>
<path fill="none" stroke="#56667d" d="M1235.35,-381.04C1216.37,-358.83 1194.44,-333.17 1174.97,-310.38"/>
<polygon fill="#56667d" stroke="#56667d" points="1176.74,-308.96 1170.79,-305.49 1173.28,-311.91 1176.74,-308.96"/>
<text xml:space="preserve" text-anchor="middle" x="1235" y="-339" font-family="Segoe UI" font-size="12.00">building_id</text>
</g>
<!-- buildings&#45;&gt;units -->
<g id="edge24" class="edge">
<title>buildings&#45;&gt;units</title>
<path fill="none" stroke="#56667d" d="M1291.61,-381.06C1295.25,-357.49 1298.66,-335.4 1298.66,-335.4 1298.66,-335.4 1310.38,-324.12 1325.37,-309.68"/>
<polygon fill="#56667d" stroke="#56667d" points="1326.83,-311.43 1329.93,-305.29 1323.67,-308.16 1326.83,-311.43"/>
<text xml:space="preserve" text-anchor="middle" x="1326.33" y="-339" font-family="Segoe UI" font-size="12.00">building_id</text>
</g>
<!-- units&#45;&gt;unit_residents -->
<g id="edge21" class="edge">
<title>units&#45;&gt;unit_residents</title>
<path fill="none" stroke="#56667d" d="M1312.83,-220.86C1268.79,-206.09 1222,-190.4 1222,-190.4 1222,-190.4 929.86,-116.58 781.85,-79.19"/>
<polygon fill="#56667d" stroke="#56667d" points="782.8,-77.08 775.94,-77.69 781.69,-81.49 782.8,-77.08"/>
<text xml:space="preserve" text-anchor="middle" x="1112.37" y="-148.6" font-family="Segoe UI" font-size="12.00">unit_id</text>
</g>
<!-- management_units&#45;&gt;access_scopes -->
<g id="edge2" class="edge">
<title>management_units&#45;&gt;access_scopes</title>
<path fill="none" stroke="#56667d" d="M1634.63,-408.64C1505.73,-369.77 1289,-304.4 1289,-304.4 1289,-304.4 1247.36,-290.44 1205.67,-276.46"/>
<polygon fill="#56667d" stroke="#56667d" points="1206.49,-274.33 1199.6,-274.42 1205.04,-278.65 1206.49,-274.33"/>
<text xml:space="preserve" text-anchor="middle" x="1481.65" y="-339" font-family="Segoe UI" font-size="12.00">management_unit_id</text>
</g>
<!-- management_units&#45;&gt;management_coverage -->
<g id="edge9" class="edge">
<title>management_units&#45;&gt;management_coverage</title>
<path fill="none" stroke="#56667d" d="M1752.05,-380.91C1781.89,-311.57 1832.63,-193.65 1863.84,-121.12"/>
<polygon fill="#56667d" stroke="#56667d" points="1865.91,-122.07 1866.38,-115.2 1861.73,-120.28 1865.91,-122.07"/>
<text xml:space="preserve" text-anchor="middle" x="1884.28" y="-243.8" font-family="Segoe UI" font-size="12.00">management_unit_id</text>
</g>
<!-- tenants -->
<g id="node1" class="node">
<title>tenants</title>
<polygon fill="#e5efff" stroke="none" points="1027,-1026.8 1027,-1066 1171,-1066 1171,-1026.8 1027,-1026.8"/>
<polygon fill="none" stroke="black" points="1027,-1026.8 1027,-1066 1171,-1066 1171,-1026.8 1027,-1026.8"/>
<text xml:space="preserve" text-anchor="start" x="1037" y="-1042.6" font-family="Segoe UI" font-weight="bold" font-size="16.00">tenants</text>
<polygon fill="none" stroke="black" points="1027,-987.6 1027,-1026.8 1171,-1026.8 1171,-987.6 1027,-987.6"/>
<text xml:space="preserve" text-anchor="start" x="1037" y="-1000.8" font-family="Segoe UI" font-size="16.00">1 dòng hiện tại</text>
<polygon fill="none" stroke="black" points="1027,-952 1027,-987.6 1171,-987.6 1171,-952 1027,-952"/>
<text xml:space="preserve" text-anchor="start" x="1037" y="-964.6" font-family="Segoe UI" font-size="13.00">FK ra/vào: 0/166</text>
</g>
<!-- users -->
<g id="node2" class="node">
<title>users</title>
<polygon fill="#e5efff" stroke="none" points="255.5,-455.6 255.5,-494.8 408.5,-494.8 408.5,-455.6 255.5,-455.6"/>
<polygon fill="none" stroke="black" points="255.5,-455.6 255.5,-494.8 408.5,-494.8 408.5,-455.6 255.5,-455.6"/>
<text xml:space="preserve" text-anchor="start" x="265.5" y="-471.4" font-family="Segoe UI" font-weight="bold" font-size="16.00">users</text>
<polygon fill="none" stroke="black" points="255.5,-416.4 255.5,-455.6 408.5,-455.6 408.5,-416.4 255.5,-416.4"/>
<text xml:space="preserve" text-anchor="start" x="265.5" y="-429.6" font-family="Segoe UI" font-size="16.00">26 dòng hiện tại</text>
<polygon fill="none" stroke="black" points="255.5,-380.8 255.5,-416.4 408.5,-416.4 408.5,-380.8 255.5,-380.8"/>
<text xml:space="preserve" text-anchor="start" x="265.5" y="-393.4" font-family="Segoe UI" font-size="13.00">FK ra/vào: 0/110</text>
</g>
<!-- tenant_memberships -->
<g id="node3" class="node">
<title>tenant_memberships</title>
<polygon fill="#e5efff" stroke="none" points="0,-265.2 0,-304.4 200,-304.4 200,-265.2 0,-265.2"/>
<polygon fill="none" stroke="black" points="0,-265.2 0,-304.4 200,-304.4 200,-265.2 0,-265.2"/>
<text xml:space="preserve" text-anchor="start" x="10" y="-281" font-family="Segoe UI" font-weight="bold" font-size="16.00">tenant_memberships</text>
<polygon fill="none" stroke="black" points="0,-226 0,-265.2 200,-265.2 200,-226 0,-226"/>
<text xml:space="preserve" text-anchor="start" x="10" y="-239.2" font-family="Segoe UI" font-size="16.00">26 dòng hiện tại</text>
<polygon fill="none" stroke="black" points="0,-190.4 0,-226 200,-226 200,-190.4 0,-190.4"/>
<text xml:space="preserve" text-anchor="start" x="10" y="-203" font-family="Segoe UI" font-size="13.00">FK ra/vào: 2/1</text>
</g>
<!-- scoped_user_roles -->
<g id="node4" class="node">
<title>scoped_user_roles</title>
<polygon fill="#e5efff" stroke="none" points="348.5,-74.8 348.5,-114 525.5,-114 525.5,-74.8 348.5,-74.8"/>
<polygon fill="none" stroke="black" points="348.5,-74.8 348.5,-114 525.5,-114 525.5,-74.8 348.5,-74.8"/>
<text xml:space="preserve" text-anchor="start" x="358.5" y="-90.6" font-family="Segoe UI" font-weight="bold" font-size="16.00">scoped_user_roles</text>
<polygon fill="none" stroke="black" points="348.5,-35.6 348.5,-74.8 525.5,-74.8 525.5,-35.6 348.5,-35.6"/>
<text xml:space="preserve" text-anchor="start" x="358.5" y="-48.8" font-family="Segoe UI" font-size="16.00">27 dòng hiện tại</text>
<polygon fill="none" stroke="black" points="348.5,0 348.5,-35.6 525.5,-35.6 525.5,0 348.5,0"/>
<text xml:space="preserve" text-anchor="start" x="358.5" y="-12.6" font-family="Segoe UI" font-size="13.00">FK ra/vào: 4/0</text>
</g>
<!-- access_scopes -->
<g id="node5" class="node">
<title>access_scopes</title>
<polygon fill="#e5efff" stroke="none" points="1045.5,-265.2 1045.5,-304.4 1198.5,-304.4 1198.5,-265.2 1045.5,-265.2"/>
<polygon fill="none" stroke="black" points="1045.5,-265.2 1045.5,-304.4 1198.5,-304.4 1198.5,-265.2 1045.5,-265.2"/>
<text xml:space="preserve" text-anchor="start" x="1055.5" y="-281" font-family="Segoe UI" font-weight="bold" font-size="16.00">access_scopes</text>
<polygon fill="none" stroke="black" points="1045.5,-226 1045.5,-265.2 1198.5,-265.2 1198.5,-226 1045.5,-226"/>
<text xml:space="preserve" text-anchor="start" x="1055.5" y="-239.2" font-family="Segoe UI" font-size="16.00">24 dòng hiện tại</text>
<polygon fill="none" stroke="black" points="1045.5,-190.4 1045.5,-226 1198.5,-226 1198.5,-190.4 1045.5,-190.4"/>
<text xml:space="preserve" text-anchor="start" x="1055.5" y="-203" font-family="Segoe UI" font-size="13.00">FK ra/vào: 5/11</text>
</g>
<!-- sites -->
<g id="node6" class="node">
<title>sites</title>
<polygon fill="#e5efff" stroke="none" points="1265,-836.4 1265,-875.6 1409,-875.6 1409,-836.4 1265,-836.4"/>
<polygon fill="none" stroke="black" points="1265,-836.4 1265,-875.6 1409,-875.6 1409,-836.4 1265,-836.4"/>
<text xml:space="preserve" text-anchor="start" x="1275" y="-852.2" font-family="Segoe UI" font-weight="bold" font-size="16.00">sites</text>
<polygon fill="none" stroke="black" points="1265,-797.2 1265,-836.4 1409,-836.4 1409,-797.2 1265,-797.2"/>
<text xml:space="preserve" text-anchor="start" x="1275" y="-810.4" font-family="Segoe UI" font-size="16.00">1 dòng hiện tại</text>
<polygon fill="none" stroke="black" points="1265,-761.6 1265,-797.2 1409,-797.2 1409,-761.6 1265,-761.6"/>
<text xml:space="preserve" text-anchor="start" x="1275" y="-774.2" font-family="Segoe UI" font-size="13.00">FK ra/vào: 2/9</text>
</g>
<!-- zones -->
<g id="node7" class="node">
<title>zones</title>
<polygon fill="#e5efff" stroke="none" points="1191,-646 1191,-685.2 1335,-685.2 1335,-646 1191,-646"/>
<polygon fill="none" stroke="black" points="1191,-646 1191,-685.2 1335,-685.2 1335,-646 1191,-646"/>
<text xml:space="preserve" text-anchor="start" x="1201" y="-661.8" font-family="Segoe UI" font-weight="bold" font-size="16.00">zones</text>
<polygon fill="none" stroke="black" points="1191,-606.8 1191,-646 1335,-646 1335,-606.8 1191,-606.8"/>
<text xml:space="preserve" text-anchor="start" x="1201" y="-620" font-family="Segoe UI" font-size="16.00">8 dòng hiện tại</text>
<polygon fill="none" stroke="black" points="1191,-571.2 1191,-606.8 1335,-606.8 1335,-571.2 1191,-571.2"/>
<text xml:space="preserve" text-anchor="start" x="1201" y="-583.8" font-family="Segoe UI" font-size="13.00">FK ra/vào: 2/4</text>
</g>
<!-- buildings -->
<g id="node8" class="node">
<title>buildings</title>
<polygon fill="#e5efff" stroke="none" points="1206.5,-455.6 1206.5,-494.8 1359.5,-494.8 1359.5,-455.6 1206.5,-455.6"/>
<polygon fill="none" stroke="black" points="1206.5,-455.6 1206.5,-494.8 1359.5,-494.8 1359.5,-455.6 1206.5,-455.6"/>
<text xml:space="preserve" text-anchor="start" x="1216.5" y="-471.4" font-family="Segoe UI" font-weight="bold" font-size="16.00">buildings</text>
<polygon fill="none" stroke="black" points="1206.5,-416.4 1206.5,-455.6 1359.5,-455.6 1359.5,-416.4 1206.5,-416.4"/>
<text xml:space="preserve" text-anchor="start" x="1216.5" y="-429.6" font-family="Segoe UI" font-size="16.00">14 dòng hiện tại</text>
<polygon fill="none" stroke="black" points="1206.5,-380.8 1206.5,-416.4 1359.5,-416.4 1359.5,-380.8 1206.5,-380.8"/>
<text xml:space="preserve" text-anchor="start" x="1216.5" y="-393.4" font-family="Segoe UI" font-size="13.00">FK ra/vào: 3/13</text>
</g>
<!-- units -->
<g id="node9" class="node">
<title>units</title>
<polygon fill="#e5efff" stroke="none" points="1312.5,-265.2 1312.5,-304.4 1465.5,-304.4 1465.5,-265.2 1312.5,-265.2"/>
<polygon fill="none" stroke="black" points="1312.5,-265.2 1312.5,-304.4 1465.5,-304.4 1465.5,-265.2 1312.5,-265.2"/>
<text xml:space="preserve" text-anchor="start" x="1322.5" y="-281" font-family="Segoe UI" font-weight="bold" font-size="16.00">units</text>
<polygon fill="none" stroke="black" points="1312.5,-226 1312.5,-265.2 1465.5,-265.2 1465.5,-226 1312.5,-226"/>
<text xml:space="preserve" text-anchor="start" x="1322.5" y="-239.2" font-family="Segoe UI" font-size="16.00">20 dòng hiện tại</text>
<polygon fill="none" stroke="black" points="1312.5,-190.4 1312.5,-226 1465.5,-226 1465.5,-190.4 1312.5,-190.4"/>
<text xml:space="preserve" text-anchor="start" x="1322.5" y="-203" font-family="Segoe UI" font-size="13.00">FK ra/vào: 4/5</text>
</g>
<!-- unit_residents -->
<g id="node10" class="node">
<title>unit_residents</title>
<polygon fill="#e5efff" stroke="none" points="621.5,-74.8 621.5,-114 774.5,-114 774.5,-74.8 621.5,-74.8"/>
<polygon fill="none" stroke="black" points="621.5,-74.8 621.5,-114 774.5,-114 774.5,-74.8 621.5,-74.8"/>
<text xml:space="preserve" text-anchor="start" x="631.5" y="-90.6" font-family="Segoe UI" font-weight="bold" font-size="16.00">unit_residents</text>
<polygon fill="none" stroke="black" points="621.5,-35.6 621.5,-74.8 774.5,-74.8 774.5,-35.6 621.5,-35.6"/>
<text xml:space="preserve" text-anchor="start" x="631.5" y="-48.8" font-family="Segoe UI" font-size="16.00">20 dòng hiện tại</text>
<polygon fill="none" stroke="black" points="621.5,0 621.5,-35.6 774.5,-35.6 774.5,0 621.5,0"/>
<text xml:space="preserve" text-anchor="start" x="631.5" y="-12.6" font-family="Segoe UI" font-size="13.00">FK ra/vào: 4/0</text>
</g>
<!-- management_units -->
<g id="node11" class="node">
<title>management_units</title>
<polygon fill="#e5efff" stroke="none" points="1634.5,-455.6 1634.5,-494.8 1821.5,-494.8 1821.5,-455.6 1634.5,-455.6"/>
<polygon fill="none" stroke="black" points="1634.5,-455.6 1634.5,-494.8 1821.5,-494.8 1821.5,-455.6 1634.5,-455.6"/>
<text xml:space="preserve" text-anchor="start" x="1644.5" y="-471.4" font-family="Segoe UI" font-weight="bold" font-size="16.00">management_units</text>
<polygon fill="none" stroke="black" points="1634.5,-416.4 1634.5,-455.6 1821.5,-455.6 1821.5,-416.4 1634.5,-416.4"/>
<text xml:space="preserve" text-anchor="start" x="1644.5" y="-429.6" font-family="Segoe UI" font-size="16.00">1 dòng hiện tại</text>
<polygon fill="none" stroke="black" points="1634.5,-380.8 1634.5,-416.4 1821.5,-416.4 1821.5,-380.8 1634.5,-380.8"/>
<text xml:space="preserve" text-anchor="start" x="1644.5" y="-393.4" font-family="Segoe UI" font-size="13.00">FK ra/vào: 1/10</text>
</g>
<!-- management_coverage -->
<g id="node12" class="node">
<title>management_coverage</title>
<polygon fill="#e5efff" stroke="none" points="1781.5,-74.8 1781.5,-114 2000.5,-114 2000.5,-74.8 1781.5,-74.8"/>
<polygon fill="none" stroke="black" points="1781.5,-74.8 1781.5,-114 2000.5,-114 2000.5,-74.8 1781.5,-74.8"/>
<text xml:space="preserve" text-anchor="start" x="1791.5" y="-90.6" font-family="Segoe UI" font-weight="bold" font-size="16.00">management_coverage</text>
<polygon fill="none" stroke="black" points="1781.5,-35.6 1781.5,-74.8 2000.5,-74.8 2000.5,-35.6 1781.5,-35.6"/>
<text xml:space="preserve" text-anchor="start" x="1791.5" y="-48.8" font-family="Segoe UI" font-size="16.00">2 dòng hiện tại</text>
<polygon fill="none" stroke="black" points="1781.5,0 1781.5,-35.6 2000.5,-35.6 2000.5,0 1781.5,0"/>
<text xml:space="preserve" text-anchor="start" x="1791.5" y="-12.6" font-family="Segoe UI" font-size="13.00">FK ra/vào: 4/1</text>
</g>
</g>
</svg>
