<?xml version="1.0" encoding="UTF-8" standalone="no"?>
<!DOCTYPE svg PUBLIC "-//W3C//DTD SVG 1.1//EN"
 "http://www.w3.org/Graphics/SVG/1.1/DTD/svg11.dtd">
<!-- Generated by graphviz version 16.1.0 (20260904.0139)
 -->
<!-- Title: G Pages: 1 -->
<svg width="1334pt" height="1754pt"
 viewBox="0.00 0.00 1334.00 1754.00" xmlns="http://www.w3.org/2000/svg" xmlns:xlink="http://www.w3.org/1999/xlink">
<g id="graph0" class="graph" transform="scale(1 1) rotate(0) translate(36 1717.6)">
<title>G</title>
<polygon fill="white" stroke="none" points="-36,36 -36,-1717.6 1298,-1717.6 1298,36 -36,36"/>
<text xml:space="preserve" text-anchor="middle" x="631" y="-1656.9" font-family="Segoe UI" font-size="23.00">TICKET VÀ CÔNG VIỆC · MŨI TÊN CHA → CON GIỮ FK</text>
<!-- tickets&#45;&gt;ticket_assessments -->
<g id="edge15" class="edge">
<title>tickets&#45;&gt;ticket_assessments</title>
<path fill="none" stroke="#56667d" d="M749.38,-1544.54C703.02,-1518.07 643.31,-1483.99 593.45,-1455.52"/>
<polygon fill="#56667d" stroke="#56667d" points="594.88,-1453.72 588.11,-1452.47 592.63,-1457.67 594.88,-1453.72"/>
<text xml:space="preserve" text-anchor="middle" x="691.39" y="-1490.2" font-family="Segoe UI" font-size="12.00">ticket_id</text>
</g>
<!-- tickets&#45;&gt;ticket_triage_decisions -->
<g id="edge18" class="edge">
<title>tickets&#45;&gt;ticket_triage_decisions</title>
<path fill="none" stroke="#56667d" d="M809.62,-1532.09C788.96,-1459.39 755.5,-1341.6 755.5,-1341.6 755.5,-1341.6 681.5,-1196.6 681.5,-1196.6 681.5,-1196.6 674.3,-1185.8 664.98,-1171.81"/>
<polygon fill="#56667d" stroke="#56667d" points="666.9,-1170.6 661.4,-1166.45 663.11,-1173.12 666.9,-1170.6"/>
<text xml:space="preserve" text-anchor="middle" x="808" y="-1395" font-family="Segoe UI" font-size="12.00">ticket_id</text>
</g>
<!-- tickets&#45;&gt;work_orders -->
<g id="edge26" class="edge">
<title>tickets&#45;&gt;work_orders</title>
<path fill="none" stroke="#56667d" d="M749.17,-1573.04C622.23,-1548.17 381.5,-1501 381.5,-1501 381.5,-1501 198.51,-1455.6 198.51,-1455.6 198.51,-1455.6 198.51,-1341.6 198.51,-1341.6 198.51,-1341.6 221.27,-1241.94 236.96,-1173.26"/>
<polygon fill="#56667d" stroke="#56667d" points="239.17,-1173.78 238.4,-1166.94 234.74,-1172.77 239.17,-1173.78"/>
<text xml:space="preserve" text-anchor="middle" x="219.51" y="-1395" font-family="Segoe UI" font-size="12.00">ticket_id</text>
</g>
<!-- tickets&#45;&gt;evidence_items -->
<g id="edge10" class="edge">
<title>tickets&#45;&gt;evidence_items</title>
<path fill="none" stroke="#56667d" d="M858.95,-1532.24C892.27,-1476.68 938.5,-1399.6 938.5,-1399.6 938.5,-1399.6 938.5,-1399.6 938.5,-436.8 938.5,-436.8 663.79,-334.31 519.6,-280.52"/>
<polygon fill="#56667d" stroke="#56667d" points="520.71,-278.51 513.82,-278.37 519.12,-282.77 520.71,-278.51"/>
<text xml:space="preserve" text-anchor="middle" x="959.49" y="-914.6" font-family="Segoe UI" font-size="12.00">ticket_id</text>
</g>
<!-- tickets&#45;&gt;files -->
<g id="edge12" class="edge">
<title>tickets&#45;&gt;files</title>
<path fill="none" stroke="#56667d" d="M901.67,-1543.23C937.93,-1521.91 973.5,-1501 973.5,-1501 973.5,-1501 1005.67,-1390.9 1027,-1317.9"/>
<polygon fill="#56667d" stroke="#56667d" points="1029.1,-1318.84 1028.74,-1311.96 1024.73,-1317.57 1029.1,-1318.84"/>
<text xml:space="preserve" text-anchor="middle" x="998.48" y="-1490.2" font-family="Segoe UI" font-size="12.00">ticket_id</text>
</g>
<!-- tickets&#45;&gt;vh_ticket_plans -->
<g id="edge20" class="edge">
<title>tickets&#45;&gt;vh_ticket_plans</title>
<path fill="none" stroke="#56667d" d="M901.69,-1562.6C978.73,-1536.92 1086.5,-1501 1086.5,-1501 1086.5,-1501 1104.31,-1482.38 1124.67,-1461.1"/>
<polygon fill="#56667d" stroke="#56667d" points="1126.28,-1462.71 1129.13,-1456.44 1122.99,-1459.56 1126.28,-1462.71"/>
<text xml:space="preserve" text-anchor="middle" x="1119.51" y="-1490.2" font-family="Segoe UI" font-size="12.00">ticket_id</text>
</g>
<!-- ticket_assessments&#45;&gt;ticket_assessments -->
<g id="edge14" class="edge">
<title>ticket_assessments&#45;&gt;ticket_assessments</title>
<path fill="none" stroke="#56667d" d="M586.74,-1416.4C613.37,-1415.78 634,-1409.85 634,-1398.6 634,-1388.49 617.35,-1382.68 594.65,-1381.16"/>
<polygon fill="#56667d" stroke="#56667d" points="594.85,-1378.89 588.25,-1380.87 594.65,-1383.43 594.85,-1378.89"/>
<text xml:space="preserve" text-anchor="middle" x="697.32" y="-1395" font-family="Segoe UI" font-size="12.00">supersedes_assessment_id</text>
</g>
<!-- ticket_assessments&#45;&gt;ticket_triage_decisions -->
<g id="edge16" class="edge">
<title>ticket_assessments&#45;&gt;ticket_triage_decisions</title>
<path fill="none" stroke="#56667d" d="M545.34,-1342.01C560.63,-1324.96 573.5,-1310.6 573.5,-1310.6 573.5,-1310.6 593.07,-1231.94 607.72,-1173.03"/>
<polygon fill="#56667d" stroke="#56667d" points="609.85,-1173.92 609.21,-1167.06 605.43,-1172.82 609.85,-1173.92"/>
<text xml:space="preserve" text-anchor="middle" x="635.82" y="-1250" font-family="Segoe UI" font-size="12.00">assessment_id</text>
</g>
<!-- ticket_triage_decisions&#45;&gt;tickets -->
<g id="edge19" class="edge">
<title>ticket_triage_decisions&#45;&gt;tickets</title>
<path fill="none" stroke="#56667d" d="M525.3,-1165.44C495.51,-1182.38 470.5,-1196.6 470.5,-1196.6 470.5,-1196.6 251.88,-1341.6 251.88,-1341.6 251.88,-1341.6 251.88,-1455.6 251.88,-1455.6 251.88,-1455.6 582.29,-1531.86 741.58,-1568.63"/>
<polygon fill="#56667d" stroke="#56667d" points="740.71,-1570.76 747.56,-1570.01 741.73,-1566.33 740.71,-1570.76"/>
<text xml:space="preserve" text-anchor="middle" x="316.19" y="-1395" font-family="Segoe UI" font-size="12.00">current_triage_decision_id</text>
</g>
<!-- ticket_triage_decisions&#45;&gt;ticket_assessments -->
<g id="edge13" class="edge">
<title>ticket_triage_decisions&#45;&gt;ticket_assessments</title>
<path fill="none" stroke="#56667d" d="M532.16,-1165.44C504.44,-1182.38 481.18,-1196.6 481.18,-1196.6 481.18,-1196.6 481.18,-1310.6 481.18,-1310.6 481.18,-1310.6 482.86,-1320.82 485.07,-1334.26"/>
<polygon fill="#56667d" stroke="#56667d" points="482.8,-1334.47 486.1,-1340.52 487.29,-1333.73 482.8,-1334.47"/>
<text xml:space="preserve" text-anchor="middle" x="523.84" y="-1250" font-family="Segoe UI" font-size="12.00">basis_decision_id</text>
</g>
<!-- ticket_triage_decisions&#45;&gt;ticket_triage_decisions -->
<g id="edge17" class="edge">
<title>ticket_triage_decisions&#45;&gt;ticket_triage_decisions</title>
<path fill="none" stroke="#56667d" d="M729.68,-1126.24C756.71,-1125.08 777,-1119.2 777,-1108.6 777,-1099.04 760.48,-1093.32 737.39,-1091.44"/>
<polygon fill="#56667d" stroke="#56667d" points="737.81,-1089.19 731.19,-1091.06 737.53,-1093.73 737.81,-1089.19"/>
<text xml:space="preserve" text-anchor="middle" x="825.99" y="-1105" font-family="Segoe UI" font-size="12.00">previous_applied_id</text>
</g>
<!-- ticket_triage_decisions&#45;&gt;dispatch_queue -->
<g id="edge5" class="edge">
<title>ticket_triage_decisions&#45;&gt;dispatch_queue</title>
<path fill="none" stroke="#56667d" d="M621.13,-1051.84C620.21,-1030.19 619.16,-1005.28 618.21,-982.93"/>
<polygon fill="#56667d" stroke="#56667d" points="620.49,-983.05 617.94,-976.66 615.94,-983.25 620.49,-983.05"/>
<text xml:space="preserve" text-anchor="middle" x="668.4" y="-1009.8" font-family="Segoe UI" font-size="12.00">priority_decision_id</text>
</g>
<!-- ticket_triage_decisions&#45;&gt;dispatch_attempts -->
<g id="edge2" class="edge">
<title>ticket_triage_decisions&#45;&gt;dispatch_attempts</title>
<path fill="none" stroke="#56667d" d="M690.89,-1051.76C711.34,-1034.82 728.5,-1020.6 728.5,-1020.6 728.5,-1020.6 728.5,-1006.2 728.5,-1006.2 728.5,-1006.2 718.5,-861.2 718.5,-861.2 718.5,-861.2 659.5,-716.2 659.5,-716.2 659.5,-716.2 649.6,-705.01 636.89,-690.66"/>
<polygon fill="#56667d" stroke="#56667d" points="638.72,-689.28 632.7,-685.92 635.31,-692.3 638.72,-689.28"/>
<text xml:space="preserve" text-anchor="middle" x="754" y="-914.6" font-family="Segoe UI" font-size="12.00">decision_id</text>
</g>
<!-- dispatch_queue&#45;&gt;dispatch_attempts -->
<g id="edge3" class="edge">
<title>dispatch_queue&#45;&gt;dispatch_attempts</title>
<path fill="none" stroke="#56667d" d="M609.1,-861.33C603.56,-813.04 595.57,-743.27 589.79,-692.84"/>
<polygon fill="#56667d" stroke="#56667d" points="592.06,-692.62 589.06,-686.42 587.54,-693.14 592.06,-692.62"/>
<text xml:space="preserve" text-anchor="middle" x="626.82" y="-769.6" font-family="Segoe UI" font-size="12.00">queue_id</text>
</g>
<!-- dispatch_attempts&#45;&gt;work_assignments -->
<g id="edge24" class="edge">
<title>dispatch_attempts&#45;&gt;work_assignments</title>
<path fill="none" stroke="#56667d" d="M492.6,-578.11C456.46,-558.37 423.19,-540.2 423.19,-540.2 423.19,-540.2 423.19,-525.8 423.19,-525.8 423.19,-525.8 424.4,-515.58 425.99,-502.14"/>
<polygon fill="#56667d" stroke="#56667d" points="428.23,-502.62 426.73,-495.89 423.71,-502.08 428.23,-502.62"/>
<text xml:space="preserve" text-anchor="middle" x="471.84" y="-529.4" font-family="Segoe UI" font-size="12.00">dispatch_attempt_id</text>
</g>
<!-- work_orders&#45;&gt;dispatch_queue -->
<g id="edge6" class="edge">
<title>work_orders&#45;&gt;dispatch_queue</title>
<path fill="none" stroke="#56667d" d="M323.28,-1075.58C378.88,-1050.77 446.5,-1020.6 446.5,-1020.6 446.5,-1020.6 487.6,-995.94 529.26,-970.94"/>
<polygon fill="#56667d" stroke="#56667d" points="530.25,-973 534.65,-967.71 527.91,-969.1 530.25,-973"/>
<text xml:space="preserve" text-anchor="middle" x="503.1" y="-1009.8" font-family="Segoe UI" font-size="12.00">work_order_id</text>
</g>
<!-- work_orders&#45;&gt;dispatch_attempts -->
<g id="edge4" class="edge">
<title>work_orders&#45;&gt;dispatch_attempts</title>
<path fill="none" stroke="#56667d" d="M304.54,-1052.01C320.8,-1034.96 334.5,-1020.6 334.5,-1020.6 334.5,-1020.6 473.18,-801.73 543.13,-691.33"/>
<polygon fill="#56667d" stroke="#56667d" points="544.86,-692.85 546.42,-686.14 541.02,-690.41 544.86,-692.85"/>
<text xml:space="preserve" text-anchor="middle" x="469.5" y="-914.6" font-family="Segoe UI" font-size="12.00">work_order_id</text>
</g>
<!-- work_orders&#45;&gt;work_assignments -->
<g id="edge25" class="edge">
<title>work_orders&#45;&gt;work_assignments</title>
<path fill="none" stroke="#56667d" d="M266.7,-1051.73C300.34,-928.14 380.85,-632.26 416.28,-502.09"/>
<polygon fill="#56667d" stroke="#56667d" points="418.43,-502.84 417.94,-495.97 414.04,-501.65 418.43,-502.84"/>
<text xml:space="preserve" text-anchor="middle" x="392.8" y="-769.6" font-family="Segoe UI" font-size="12.00">work_order_id</text>
</g>
<!-- work_orders&#45;&gt;work_approvals -->
<g id="edge23" class="edge">
<title>work_orders&#45;&gt;work_approvals</title>
<path fill="none" stroke="#56667d" d="M179.78,-1066.9C139.88,-1044.26 98.19,-1020.6 98.19,-1020.6 98.19,-1020.6 92.54,-910.95 88.78,-837.94"/>
<polygon fill="#56667d" stroke="#56667d" points="91.06,-838 88.46,-831.62 86.52,-838.23 91.06,-838"/>
<text xml:space="preserve" text-anchor="middle" x="133.84" y="-1009.8" font-family="Segoe UI" font-size="12.00">work_order_id</text>
</g>
<!-- work_orders&#45;&gt;evidence_items -->
<g id="edge11" class="edge">
<title>work_orders&#45;&gt;evidence_items</title>
<path fill="none" stroke="#56667d" d="M237.59,-1051.84C223.73,-996.28 204.5,-919.2 204.5,-919.2 204.5,-919.2 204.5,-919.2 204.5,-436.8 204.5,-436.8 292.79,-364.17 359.72,-309.1"/>
<polygon fill="#56667d" stroke="#56667d" points="360.98,-311.01 364.55,-305.12 358.09,-307.5 360.98,-311.01"/>
<text xml:space="preserve" text-anchor="middle" x="240.16" y="-624.6" font-family="Segoe UI" font-size="12.00">work_order_id</text>
</g>
<!-- work_assignments&#45;&gt;dispatch_attempts -->
<g id="edge1" class="edge">
<title>work_assignments&#45;&gt;dispatch_attempts</title>
<path fill="none" stroke="#56667d" d="M496.4,-494.64C515.48,-511.58 531.5,-525.8 531.5,-525.8 531.5,-525.8 540.47,-543.63 550.89,-564.35"/>
<polygon fill="#56667d" stroke="#56667d" points="548.83,-565.32 553.78,-570.11 552.9,-563.28 548.83,-565.32"/>
<text xml:space="preserve" text-anchor="middle" x="572.48" y="-529.4" font-family="Segoe UI" font-size="12.00">assignment_id</text>
</g>
<!-- work_assignments&#45;&gt;evidence_items -->
<g id="edge7" class="edge">
<title>work_assignments&#45;&gt;evidence_items</title>
<path fill="none" stroke="#56667d" d="M433.5,-381.04C433.5,-359.39 433.5,-334.48 433.5,-312.13"/>
<polygon fill="#56667d" stroke="#56667d" points="435.78,-312.36 433.5,-305.86 431.23,-312.36 435.78,-312.36"/>
<text xml:space="preserve" text-anchor="middle" x="468.16" y="-339" font-family="Segoe UI" font-size="12.00">assignment_id</text>
</g>
<!-- work_approvals&#45;&gt;work_approval_evidence -->
<g id="edge21" class="edge">
<title>work_approvals&#45;&gt;work_approval_evidence</title>
<path fill="none" stroke="#56667d" d="M83.39,-716.35C80.73,-645.95 76.5,-534 76.5,-534 76.5,-534 76.5,-534 76.5,-246.4 76.5,-246.4 90.68,-176.09 101.72,-121.37"/>
<polygon fill="#56667d" stroke="#56667d" points="103.9,-122.07 102.95,-115.25 99.44,-121.17 103.9,-122.07"/>
<text xml:space="preserve" text-anchor="middle" x="105.16" y="-434.2" font-family="Segoe UI" font-size="12.00">approval_id</text>
</g>
<!-- evidence_items&#45;&gt;work_approval_evidence -->
<g id="edge22" class="edge">
<title>evidence_items&#45;&gt;work_approval_evidence</title>
<path fill="none" stroke="#56667d" d="M354.65,-199.83C312.79,-175.11 260.88,-144.45 216.04,-117.97"/>
<polygon fill="#56667d" stroke="#56667d" points="217.25,-116.04 210.5,-114.7 214.94,-119.96 217.25,-116.04"/>
<text xml:space="preserve" text-anchor="middle" x="312.55" y="-148.6" font-family="Segoe UI" font-size="12.00">evidence_id</text>
</g>
<!-- evidence_items&#45;&gt;evidence_items -->
<g id="edge9" class="edge">
<title>evidence_items&#45;&gt;evidence_items</title>
<path fill="none" stroke="#56667d" d="M512.25,-265.25C538.5,-265.25 559.5,-259.3 559.5,-247.4 559.5,-236.71 542.55,-230.82 520.07,-229.73"/>
<polygon fill="#56667d" stroke="#56667d" points="520.31,-227.46 513.76,-229.59 520.21,-232.01 520.31,-227.46"/>
<text xml:space="preserve" text-anchor="middle" x="593.16" y="-243.8" font-family="Segoe UI" font-size="12.00">supersedes_id</text>
</g>
<!-- files&#45;&gt;evidence_items -->
<g id="edge8" class="edge">
<title>files&#45;&gt;evidence_items</title>
<path fill="none" stroke="#56667d" d="M1046.91,-1196.75C1048.68,-1126.35 1051.5,-1014.4 1051.5,-1014.4 1051.5,-1014.4 1051.5,-1014.4 1051.5,-436.8 1051.5,-436.8 973.5,-335.4 973.5,-335.4 973.5,-335.4 672.44,-286.9 519.91,-262.32"/>
<polygon fill="#56667d" stroke="#56667d" points="520.58,-260.13 513.8,-261.34 519.86,-264.62 520.58,-260.13"/>
<text xml:space="preserve" text-anchor="middle" x="1067.16" y="-769.6" font-family="Segoe UI" font-size="12.00">file_id</text>
</g>
<!-- tickets -->
<g id="node1" class="node">
<title>tickets</title>
<polygon fill="#e5efff" stroke="none" points="749,-1606.8 749,-1646 902,-1646 902,-1606.8 749,-1606.8"/>
<polygon fill="none" stroke="black" points="749,-1606.8 749,-1646 902,-1646 902,-1606.8 749,-1606.8"/>
<text xml:space="preserve" text-anchor="start" x="759" y="-1622.6" font-family="Segoe UI" font-weight="bold" font-size="16.00">tickets</text>
<polygon fill="none" stroke="black" points="749,-1567.6 749,-1606.8 902,-1606.8 902,-1567.6 749,-1567.6"/>
<text xml:space="preserve" text-anchor="start" x="759" y="-1580.8" font-family="Segoe UI" font-size="16.00">22 dòng hiện tại</text>
<polygon fill="none" stroke="black" points="749,-1532 749,-1567.6 902,-1567.6 902,-1532 749,-1532"/>
<text xml:space="preserve" text-anchor="start" x="759" y="-1544.6" font-family="Segoe UI" font-size="13.00">FK ra/vào: 16/25</text>
</g>
<!-- ticket_assessments -->
<g id="node2" class="node">
<title>ticket_assessments</title>
<polygon fill="#e5efff" stroke="none" points="404,-1416.4 404,-1455.6 587,-1455.6 587,-1416.4 404,-1416.4"/>
<polygon fill="none" stroke="black" points="404,-1416.4 404,-1455.6 587,-1455.6 587,-1416.4 404,-1416.4"/>
<text xml:space="preserve" text-anchor="start" x="414" y="-1432.2" font-family="Segoe UI" font-weight="bold" font-size="16.00">ticket_assessments</text>
<polygon fill="none" stroke="black" points="404,-1377.2 404,-1416.4 587,-1416.4 587,-1377.2 404,-1377.2"/>
<text xml:space="preserve" text-anchor="start" x="414" y="-1390.4" font-family="Segoe UI" font-size="16.00">0 dòng hiện tại</text>
<polygon fill="none" stroke="black" points="404,-1341.6 404,-1377.2 587,-1377.2 587,-1341.6 404,-1341.6"/>
<text xml:space="preserve" text-anchor="start" x="414" y="-1354.2" font-family="Segoe UI" font-size="13.00">FK ra/vào: 6/5</text>
</g>
<!-- ticket_triage_decisions -->
<g id="node3" class="node">
<title>ticket_triage_decisions</title>
<polygon fill="#e5efff" stroke="none" points="517,-1126.4 517,-1165.6 730,-1165.6 730,-1126.4 517,-1126.4"/>
<polygon fill="none" stroke="black" points="517,-1126.4 517,-1165.6 730,-1165.6 730,-1126.4 517,-1126.4"/>
<text xml:space="preserve" text-anchor="start" x="527" y="-1142.2" font-family="Segoe UI" font-weight="bold" font-size="16.00">ticket_triage_decisions</text>
<polygon fill="none" stroke="black" points="517,-1087.2 517,-1126.4 730,-1126.4 730,-1087.2 517,-1087.2"/>
<text xml:space="preserve" text-anchor="start" x="527" y="-1100.4" font-family="Segoe UI" font-size="16.00">0 dòng hiện tại</text>
<polygon fill="none" stroke="black" points="517,-1051.6 517,-1087.2 730,-1087.2 730,-1051.6 517,-1051.6"/>
<text xml:space="preserve" text-anchor="start" x="527" y="-1064.2" font-family="Segoe UI" font-size="13.00">FK ra/vào: 9/11</text>
</g>
<!-- dispatch_queue -->
<g id="node4" class="node">
<title>dispatch_queue</title>
<polygon fill="#e5efff" stroke="none" points="535.5,-936 535.5,-975.2 695.5,-975.2 695.5,-936 535.5,-936"/>
<polygon fill="none" stroke="black" points="535.5,-936 535.5,-975.2 695.5,-975.2 695.5,-936 535.5,-936"/>
<text xml:space="preserve" text-anchor="start" x="545.5" y="-951.8" font-family="Segoe UI" font-weight="bold" font-size="16.00">dispatch_queue</text>
<polygon fill="none" stroke="black" points="535.5,-896.8 535.5,-936 695.5,-936 695.5,-896.8 535.5,-896.8"/>
<text xml:space="preserve" text-anchor="start" x="545.5" y="-910" font-family="Segoe UI" font-size="16.00">0 dòng hiện tại</text>
<polygon fill="none" stroke="black" points="535.5,-861.2 535.5,-896.8 695.5,-896.8 695.5,-861.2 535.5,-861.2"/>
<text xml:space="preserve" text-anchor="start" x="545.5" y="-873.8" font-family="Segoe UI" font-size="13.00">FK ra/vào: 5/1</text>
</g>
<!-- dispatch_attempts -->
<g id="node5" class="node">
<title>dispatch_attempts</title>
<polygon fill="#e5efff" stroke="none" points="492.5,-646 492.5,-685.2 672.5,-685.2 672.5,-646 492.5,-646"/>
<polygon fill="none" stroke="black" points="492.5,-646 492.5,-685.2 672.5,-685.2 672.5,-646 492.5,-646"/>
<text xml:space="preserve" text-anchor="start" x="502.5" y="-661.8" font-family="Segoe UI" font-weight="bold" font-size="16.00">dispatch_attempts</text>
<polygon fill="none" stroke="black" points="492.5,-606.8 492.5,-646 672.5,-646 672.5,-606.8 492.5,-606.8"/>
<text xml:space="preserve" text-anchor="start" x="502.5" y="-620" font-family="Segoe UI" font-size="16.00">0 dòng hiện tại</text>
<polygon fill="none" stroke="black" points="492.5,-571.2 492.5,-606.8 672.5,-606.8 672.5,-571.2 492.5,-571.2"/>
<text xml:space="preserve" text-anchor="start" x="502.5" y="-583.8" font-family="Segoe UI" font-size="13.00">FK ra/vào: 5/1</text>
</g>
<!-- work_orders -->
<g id="node6" class="node">
<title>work_orders</title>
<polygon fill="#e5efff" stroke="none" points="179.5,-1126.4 179.5,-1165.6 323.5,-1165.6 323.5,-1126.4 179.5,-1126.4"/>
<polygon fill="none" stroke="black" points="179.5,-1126.4 179.5,-1165.6 323.5,-1165.6 323.5,-1126.4 179.5,-1126.4"/>
<text xml:space="preserve" text-anchor="start" x="189.5" y="-1142.2" font-family="Segoe UI" font-weight="bold" font-size="16.00">work_orders</text>
<polygon fill="none" stroke="black" points="179.5,-1087.2 179.5,-1126.4 323.5,-1126.4 323.5,-1087.2 179.5,-1087.2"/>
<text xml:space="preserve" text-anchor="start" x="189.5" y="-1100.4" font-family="Segoe UI" font-size="16.00">7 dòng hiện tại</text>
<polygon fill="none" stroke="black" points="179.5,-1051.6 179.5,-1087.2 323.5,-1087.2 323.5,-1051.6 179.5,-1051.6"/>
<text xml:space="preserve" text-anchor="start" x="189.5" y="-1064.2" font-family="Segoe UI" font-size="13.00">FK ra/vào: 4/21</text>
</g>
<!-- work_assignments -->
<g id="node7" class="node">
<title>work_assignments</title>
<polygon fill="#e5efff" stroke="none" points="343.5,-455.6 343.5,-494.8 523.5,-494.8 523.5,-455.6 343.5,-455.6"/>
<polygon fill="none" stroke="black" points="343.5,-455.6 343.5,-494.8 523.5,-494.8 523.5,-455.6 343.5,-455.6"/>
<text xml:space="preserve" text-anchor="start" x="353.5" y="-471.4" font-family="Segoe UI" font-weight="bold" font-size="16.00">work_assignments</text>
<polygon fill="none" stroke="black" points="343.5,-416.4 343.5,-455.6 523.5,-455.6 523.5,-416.4 343.5,-416.4"/>
<text xml:space="preserve" text-anchor="start" x="353.5" y="-429.6" font-family="Segoe UI" font-size="16.00">0 dòng hiện tại</text>
<polygon fill="none" stroke="black" points="343.5,-380.8 343.5,-416.4 523.5,-416.4 523.5,-380.8 343.5,-380.8"/>
<text xml:space="preserve" text-anchor="start" x="353.5" y="-393.4" font-family="Segoe UI" font-size="13.00">FK ra/vào: 6/5</text>
</g>
<!-- work_approvals -->
<g id="node8" class="node">
<title>work_approvals</title>
<polygon fill="#e5efff" stroke="none" points="5.5,-791 5.5,-830.2 165.5,-830.2 165.5,-791 5.5,-791"/>
<polygon fill="none" stroke="black" points="5.5,-791 5.5,-830.2 165.5,-830.2 165.5,-791 5.5,-791"/>
<text xml:space="preserve" text-anchor="start" x="15.5" y="-806.8" font-family="Segoe UI" font-weight="bold" font-size="16.00">work_approvals</text>
<polygon fill="none" stroke="black" points="5.5,-751.8 5.5,-791 165.5,-791 165.5,-751.8 5.5,-751.8"/>
<text xml:space="preserve" text-anchor="start" x="15.5" y="-765" font-family="Segoe UI" font-size="16.00">0 dòng hiện tại</text>
<polygon fill="none" stroke="black" points="5.5,-716.2 5.5,-751.8 165.5,-751.8 165.5,-716.2 5.5,-716.2"/>
<text xml:space="preserve" text-anchor="start" x="15.5" y="-728.8" font-family="Segoe UI" font-size="13.00">FK ra/vào: 6/2</text>
</g>
<!-- work_approval_evidence -->
<g id="node9" class="node">
<title>work_approval_evidence</title>
<polygon fill="#e5efff" stroke="none" points="0,-74.8 0,-114 229,-114 229,-74.8 0,-74.8"/>
<polygon fill="none" stroke="black" points="0,-74.8 0,-114 229,-114 229,-74.8 0,-74.8"/>
<text xml:space="preserve" text-anchor="start" x="10" y="-90.6" font-family="Segoe UI" font-weight="bold" font-size="16.00">work_approval_evidence</text>
<polygon fill="none" stroke="black" points="0,-35.6 0,-74.8 229,-74.8 229,-35.6 0,-35.6"/>
<text xml:space="preserve" text-anchor="start" x="10" y="-48.8" font-family="Segoe UI" font-size="16.00">0 dòng hiện tại</text>
<polygon fill="none" stroke="black" points="0,0 0,-35.6 229,-35.6 229,0 0,0"/>
<text xml:space="preserve" text-anchor="start" x="10" y="-12.6" font-family="Segoe UI" font-size="13.00">FK ra/vào: 4/0</text>
</g>
<!-- evidence_items -->
<g id="node10" class="node">
<title>evidence_items</title>
<polygon fill="#e5efff" stroke="none" points="354.5,-265.2 354.5,-304.4 512.5,-304.4 512.5,-265.2 354.5,-265.2"/>
<polygon fill="none" stroke="black" points="354.5,-265.2 354.5,-304.4 512.5,-304.4 512.5,-265.2 354.5,-265.2"/>
<text xml:space="preserve" text-anchor="start" x="364.5" y="-281" font-family="Segoe UI" font-weight="bold" font-size="16.00">evidence_items</text>
<polygon fill="none" stroke="black" points="354.5,-226 354.5,-265.2 512.5,-265.2 512.5,-226 354.5,-226"/>
<text xml:space="preserve" text-anchor="start" x="364.5" y="-239.2" font-family="Segoe UI" font-size="16.00">0 dòng hiện tại</text>
<polygon fill="none" stroke="black" points="354.5,-190.4 354.5,-226 512.5,-226 512.5,-190.4 354.5,-190.4"/>
<text xml:space="preserve" text-anchor="start" x="364.5" y="-203" font-family="Segoe UI" font-size="13.00">FK ra/vào: 7/4</text>
</g>
<!-- files -->
<g id="node11" class="node">
<title>files</title>
<polygon fill="#e5efff" stroke="none" points="973.5,-1271.4 973.5,-1310.6 1117.5,-1310.6 1117.5,-1271.4 973.5,-1271.4"/>
<polygon fill="none" stroke="black" points="973.5,-1271.4 973.5,-1310.6 1117.5,-1310.6 1117.5,-1271.4 973.5,-1271.4"/>
<text xml:space="preserve" text-anchor="start" x="983.5" y="-1287.2" font-family="Segoe UI" font-weight="bold" font-size="16.00">files</text>
<polygon fill="none" stroke="black" points="973.5,-1232.2 973.5,-1271.4 1117.5,-1271.4 1117.5,-1232.2 973.5,-1232.2"/>
<text xml:space="preserve" text-anchor="start" x="983.5" y="-1245.4" font-family="Segoe UI" font-size="16.00">1 dòng hiện tại</text>
<polygon fill="none" stroke="black" points="973.5,-1196.6 973.5,-1232.2 1117.5,-1232.2 1117.5,-1196.6 973.5,-1196.6"/>
<text xml:space="preserve" text-anchor="start" x="983.5" y="-1209.2" font-family="Segoe UI" font-size="13.00">FK ra/vào: 9/16</text>
</g>
<!-- vh_ticket_plans -->
<g id="node12" class="node">
<title>vh_ticket_plans</title>
<polygon fill="#e5efff" stroke="none" points="1105,-1416.4 1105,-1455.6 1262,-1455.6 1262,-1416.4 1105,-1416.4"/>
<polygon fill="none" stroke="black" points="1105,-1416.4 1105,-1455.6 1262,-1455.6 1262,-1416.4 1105,-1416.4"/>
<text xml:space="preserve" text-anchor="start" x="1115" y="-1432.2" font-family="Segoe UI" font-weight="bold" font-size="16.00">vh_ticket_plans</text>
<polygon fill="none" stroke="black" points="1105,-1377.2 1105,-1416.4 1262,-1416.4 1262,-1377.2 1105,-1377.2"/>
<text xml:space="preserve" text-anchor="start" x="1115" y="-1390.4" font-family="Segoe UI" font-size="16.00">0 dòng hiện tại</text>
<polygon fill="none" stroke="black" points="1105,-1341.6 1105,-1377.2 1262,-1377.2 1262,-1341.6 1105,-1341.6"/>
<text xml:space="preserve" text-anchor="start" x="1115" y="-1354.2" font-family="Segoe UI" font-size="13.00">FK ra/vào: 5/1</text>
</g>
</g>
</svg>
