<?xml version="1.0" encoding="UTF-8" standalone="no"?>
<!DOCTYPE svg PUBLIC "-//W3C//DTD SVG 1.1//EN"
 "http://www.w3.org/Graphics/SVG/1.1/DTD/svg11.dtd">
<!-- Generated by graphviz version 16.1.0 (20260904.0139)
 -->
<!-- Title: G Pages: 1 -->
<svg width="1203pt" height="1548pt"
 viewBox="0.00 0.00 1203.00 1548.00" xmlns="http://www.w3.org/2000/svg" xmlns:xlink="http://www.w3.org/1999/xlink">
<g id="graph0" class="graph" transform="scale(1 1) rotate(0) translate(36 1512)">
<title>G</title>
<polygon fill="#ffffff" stroke="none" points="-36,36 -36,-1512 1167,-1512 1167,36 -36,36"/>
<text xml:space="preserve" text-anchor="middle" x="565.5" y="-1451.3" font-family="Segoe UI" font-size="23.00">TEAM QUANG · TÀI LIỆU → PHIÊN BẢN → CHUNK → VECTOR</text>
<!-- knowledge_bases&#45;&gt;knowledge_documents -->
<g id="edge10" class="edge">
<title>knowledge_bases&#45;&gt;knowledge_documents</title>
<path fill="none" stroke="#53657b" stroke-width="1.4" d="M270.85,-1301.73C279.73,-1268.93 292.71,-1221.01 304.51,-1177.42"/>
<polygon fill="#53657b" stroke="#53657b" stroke-width="1.4" points="306.83,-1178.21 306.3,-1170.81 302.1,-1176.93 306.83,-1178.21"/>
<text xml:space="preserve" text-anchor="middle" x="344.15" y="-1203.4" font-family="Segoe UI" font-size="12.00">knowledge_base_id</text>
</g>
<!-- knowledge_categories&#45;&gt;knowledge_categories -->
<g id="edge6" class="edge">
<title>knowledge_categories&#45;&gt;knowledge_categories</title>
<path fill="none" stroke="#53657b" stroke-width="1.4" d="M622.48,-1367.96C649.34,-1366.3 669.5,-1357.92 669.5,-1342.8 669.5,-1329.39 653.65,-1321.28 631.33,-1318.46"/>
<polygon fill="#53657b" stroke="#53657b" stroke-width="1.4" points="631.79,-1316.05 624.59,-1317.84 631.34,-1320.92 631.79,-1316.05"/>
<text xml:space="preserve" text-anchor="middle" x="692.16" y="-1339.2" font-family="Segoe UI" font-size="12.00">parent_id</text>
</g>
<!-- knowledge_categories&#45;&gt;knowledge_documents -->
<g id="edge9" class="edge">
<title>knowledge_categories&#45;&gt;knowledge_documents</title>
<path fill="none" stroke="#53657b" stroke-width="1.4" d="M489.65,-1301.73C467.03,-1268.59 433.88,-1220.01 403.88,-1176.06"/>
<polygon fill="#53657b" stroke="#53657b" stroke-width="1.4" points="406.07,-1174.92 400.1,-1170.52 402.02,-1177.68 406.07,-1174.92"/>
<text xml:space="preserve" text-anchor="middle" x="453.32" y="-1203.4" font-family="Segoe UI" font-size="12.00">category_id</text>
</g>
<!-- knowledge_documents&#45;&gt;document_versions -->
<g id="edge1" class="edge">
<title>knowledge_documents&#45;&gt;document_versions</title>
<path fill="none" stroke="#53657b" stroke-width="1.4" d="M226.8,-973.84C183.02,-934.11 142.35,-897.2 142.35,-897.2 142.35,-897.2 142.35,-814.8 142.35,-814.8 142.35,-814.8 179,-781.54 220.16,-744.19"/>
<polygon fill="#53657b" stroke="#53657b" stroke-width="1.4" points="221.7,-746.11 225.23,-739.59 218.4,-742.48 221.7,-746.11"/>
<text xml:space="preserve" text-anchor="middle" x="173.67" y="-852.4" font-family="Segoe UI" font-size="12.00">document_id</text>
</g>
<!-- knowledge_documents&#45;&gt;files -->
<g id="edge3" class="edge">
<title>knowledge_documents&#45;&gt;files</title>
<path fill="none" stroke="#53657b" stroke-width="1.4" d="M333,-973.89C333,-950.45 333,-926.33 333,-906.14"/>
<polygon fill="#53657b" stroke="#53657b" stroke-width="1.4" points="335.45,-906.27 333,-899.27 330.55,-906.27 335.45,-906.27"/>
<text xml:space="preserve" text-anchor="middle" x="364.33" y="-931.8" font-family="Segoe UI" font-size="12.00">document_id</text>
</g>
<!-- document_versions&#45;&gt;knowledge_documents -->
<g id="edge8" class="edge">
<title>document_versions&#45;&gt;knowledge_documents</title>
<path fill="none" stroke="#53657b" stroke-width="1.4" d="M404.3,-738.16C433.69,-777.89 461,-814.8 461,-814.8 461,-814.8 461,-897.2 461,-897.2 461,-897.2 436.8,-929.91 409.44,-966.89"/>
<polygon fill="#53657b" stroke="#53657b" stroke-width="1.4" points="407.75,-965.05 405.56,-972.13 411.69,-967.96 407.75,-965.05"/>
<text xml:space="preserve" text-anchor="middle" x="503.65" y="-852.4" font-family="Segoe UI" font-size="12.00">active_version_id</text>
</g>
<!-- document_versions&#45;&gt;ingestion_jobs -->
<g id="edge5" class="edge">
<title>document_versions&#45;&gt;ingestion_jobs</title>
<path fill="none" stroke="#53657b" stroke-width="1.4" d="M386.73,-543.23C402.64,-514.64 419.93,-483.55 435.42,-455.72"/>
<polygon fill="#53657b" stroke="#53657b" stroke-width="1.4" points="437.45,-457.11 438.71,-449.81 433.16,-454.73 437.45,-457.11"/>
<text xml:space="preserve" text-anchor="middle" x="433.33" y="-501.4" font-family="Segoe UI" font-size="12.00">version_id</text>
</g>
<!-- document_versions&#45;&gt;knowledge_chunks -->
<g id="edge7" class="edge">
<title>document_versions&#45;&gt;knowledge_chunks</title>
<path fill="none" stroke="#53657b" stroke-width="1.4" d="M260.29,-543.23C243.27,-520.64 225.09,-496.48 207.86,-473.6"/>
<polygon fill="#53657b" stroke="#53657b" stroke-width="1.4" points="209.99,-472.36 203.82,-468.24 206.08,-475.31 209.99,-472.36"/>
<text xml:space="preserve" text-anchor="middle" x="256.83" y="-501.4" font-family="Segoe UI" font-size="12.00">version_id</text>
</g>
<!-- files&#45;&gt;document_versions -->
<g id="edge2" class="edge">
<title>files&#45;&gt;document_versions</title>
<path fill="none" stroke="#53657b" stroke-width="1.4" d="M333,-814.9C333,-795.56 333,-771.36 333,-747.24"/>
<polygon fill="#53657b" stroke="#53657b" stroke-width="1.4" points="335.45,-747.49 333,-740.49 330.55,-747.49 335.45,-747.49"/>
<text xml:space="preserve" text-anchor="middle" x="348.66" y="-773" font-family="Segoe UI" font-size="12.00">file_id</text>
</g>
<!-- knowledge_chunks&#45;&gt;knowledge_embeddings -->
<g id="edge11" class="edge">
<title>knowledge_chunks&#45;&gt;knowledge_embeddings</title>
<path fill="none" stroke="#53657b" stroke-width="1.4" d="M241.76,-271.63C268.27,-248.72 296.65,-224.2 323.46,-201.03"/>
<polygon fill="#53657b" stroke="#53657b" stroke-width="1.4" points="324.94,-202.99 328.63,-196.56 321.73,-199.28 324.94,-202.99"/>
<text xml:space="preserve" text-anchor="middle" x="308.33" y="-229.8" font-family="Segoe UI" font-size="12.00">chunk_id</text>
</g>
<!-- embedding_models&#45;&gt;ingestion_jobs -->
<g id="edge4" class="edge">
<title>embedding_models&#45;&gt;ingestion_jobs</title>
<path fill="none" stroke="#53657b" stroke-width="1.4" d="M653.9,-562.18C623.91,-528.49 588.72,-488.96 558.09,-454.55"/>
<polygon fill="#53657b" stroke="#53657b" stroke-width="1.4" points="559.92,-452.92 553.43,-449.32 556.26,-456.18 559.92,-452.92"/>
<text xml:space="preserve" text-anchor="middle" x="655.32" y="-501.4" font-family="Segoe UI" font-size="12.00">embedding_model_id</text>
</g>
<!-- embedding_models&#45;&gt;knowledge_embeddings -->
<g id="edge12" class="edge">
<title>embedding_models&#45;&gt;knowledge_embeddings</title>
<path fill="none" stroke="#53657b" stroke-width="1.4" d="M720.81,-562.15C719.88,-529 719,-497.8 719,-497.8 719,-497.8 682,-271.6 682,-271.6 682,-271.6 622.41,-228.64 562.61,-185.54"/>
<polygon fill="#53657b" stroke="#53657b" stroke-width="1.4" points="564.15,-183.63 557.04,-181.53 561.29,-187.61 564.15,-183.63"/>
<text xml:space="preserve" text-anchor="middle" x="736.56" y="-365.6" font-family="Segoe UI" font-size="12.00">model_id</text>
</g>
<!-- knowledge_bases -->
<g id="node1" class="node">
<title>knowledge_bases</title>
<polygon fill="#e4eeff" stroke="none" points="155.5,-1342.8 155.5,-1384 364.5,-1384 364.5,-1342.8 155.5,-1342.8"/>
<polygon fill="none" stroke="black" points="155.5,-1342.8 155.5,-1384 364.5,-1384 364.5,-1342.8 155.5,-1342.8"/>
<text xml:space="preserve" text-anchor="start" x="166.5" y="-1359.6" font-family="Segoe UI" font-weight="bold" font-size="16.00">knowledge_bases</text>
<polygon fill="none" stroke="black" points="155.5,-1301.6 155.5,-1342.8 364.5,-1342.8 364.5,-1301.6 155.5,-1301.6"/>
<text xml:space="preserve" text-anchor="start" x="166.5" y="-1315.8" font-family="Segoe UI" font-size="16.00">2 dòng · snapshot 03/10</text>
</g>
<!-- knowledge_categories -->
<g id="node2" class="node">
<title>knowledge_categories</title>
<polygon fill="#e4eeff" stroke="none" points="411.5,-1342.8 411.5,-1384 622.5,-1384 622.5,-1342.8 411.5,-1342.8"/>
<polygon fill="none" stroke="black" points="411.5,-1342.8 411.5,-1384 622.5,-1384 622.5,-1342.8 411.5,-1342.8"/>
<text xml:space="preserve" text-anchor="start" x="422.5" y="-1359.6" font-family="Segoe UI" font-weight="bold" font-size="16.00">knowledge_categories</text>
<polygon fill="none" stroke="black" points="411.5,-1301.6 411.5,-1342.8 622.5,-1342.8 622.5,-1301.6 411.5,-1301.6"/>
<text xml:space="preserve" text-anchor="start" x="422.5" y="-1315.8" font-family="Segoe UI" font-size="16.00">1 dòng · snapshot 03/10</text>
</g>
<!-- knowledge_documents -->
<g id="node3" class="node">
<title>knowledge_documents</title>
<polygon fill="#e4eeff" stroke="none" points="193.5,-1127.6 193.5,-1168.8 472.5,-1168.8 472.5,-1127.6 193.5,-1127.6"/>
<polygon fill="none" stroke="black" points="193.5,-1127.6 193.5,-1168.8 472.5,-1168.8 472.5,-1127.6 193.5,-1127.6"/>
<text xml:space="preserve" text-anchor="start" x="204.5" y="-1144.4" font-family="Segoe UI" font-weight="bold" font-size="16.00">knowledge_documents</text>
<polygon fill="none" stroke="black" points="193.5,-1086.4 193.5,-1127.6 472.5,-1127.6 472.5,-1086.4 193.5,-1086.4"/>
<text xml:space="preserve" text-anchor="start" x="204.5" y="-1100.6" font-family="Segoe UI" font-size="16.00">116 dòng · snapshot 03/10</text>
<polygon fill="none" stroke="black" points="193.5,-1048.8 193.5,-1086.4 472.5,-1086.4 472.5,-1048.8 193.5,-1048.8"/>
<text xml:space="preserve" text-anchor="start" x="204.5" y="-1062.4" font-family="Segoe UI" font-size="13.00">PK id; FK knowledge_base_id/category_id</text>
<polygon fill="none" stroke="black" points="193.5,-1011.2 193.5,-1048.8 472.5,-1048.8 472.5,-1011.2 193.5,-1011.2"/>
<text xml:space="preserve" text-anchor="start" x="204.5" y="-1024.8" font-family="Segoe UI" font-size="13.00">active_version_id → document_versions</text>
<polygon fill="none" stroke="black" points="193.5,-973.6 193.5,-1011.2 472.5,-1011.2 472.5,-973.6 193.5,-973.6"/>
<text xml:space="preserve" text-anchor="start" x="204.5" y="-987.2" font-family="Segoe UI" font-size="13.00">status=published: 115; draft: 1</text>
</g>
<!-- document_versions -->
<g id="node4" class="node">
<title>document_versions</title>
<polygon fill="#e4eeff" stroke="none" points="170.5,-697.2 170.5,-738.4 495.5,-738.4 495.5,-697.2 170.5,-697.2"/>
<polygon fill="none" stroke="black" points="170.5,-697.2 170.5,-738.4 495.5,-738.4 495.5,-697.2 170.5,-697.2"/>
<text xml:space="preserve" text-anchor="start" x="181.5" y="-714" font-family="Segoe UI" font-weight="bold" font-size="16.00">document_versions</text>
<polygon fill="none" stroke="black" points="170.5,-656 170.5,-697.2 495.5,-697.2 495.5,-656 170.5,-656"/>
<text xml:space="preserve" text-anchor="start" x="181.5" y="-670.2" font-family="Segoe UI" font-size="16.00">115 dòng · snapshot 03/10</text>
<polygon fill="none" stroke="black" points="170.5,-618.4 170.5,-656 495.5,-656 495.5,-618.4 170.5,-618.4"/>
<text xml:space="preserve" text-anchor="start" x="181.5" y="-632" font-family="Segoe UI" font-size="13.00">PK id; FK document_id/file_id</text>
<polygon fill="none" stroke="black" points="170.5,-580.8 170.5,-618.4 495.5,-618.4 495.5,-580.8 170.5,-580.8"/>
<text xml:space="preserve" text-anchor="start" x="181.5" y="-594.4" font-family="Segoe UI" font-size="13.00">UNIQUE(document_id,version_no)</text>
<polygon fill="none" stroke="black" points="170.5,-543.2 170.5,-580.8 495.5,-580.8 495.5,-543.2 170.5,-543.2"/>
<text xml:space="preserve" text-anchor="start" x="181.5" y="-556.8" font-family="Segoe UI" font-size="13.00">content_hash; effective_from/to; extraction_config</text>
</g>
<!-- files -->
<g id="node5" class="node">
<title>files</title>
<polygon fill="#e8edf2" stroke="none" points="228.5,-856 228.5,-897.2 437.5,-897.2 437.5,-856 228.5,-856"/>
<polygon fill="none" stroke="black" points="228.5,-856 228.5,-897.2 437.5,-897.2 437.5,-856 228.5,-856"/>
<text xml:space="preserve" text-anchor="start" x="239.5" y="-872.8" font-family="Segoe UI" font-weight="bold" font-size="16.00">files</text>
<polygon fill="none" stroke="black" points="228.5,-814.8 228.5,-856 437.5,-856 437.5,-814.8 228.5,-814.8"/>
<text xml:space="preserve" text-anchor="start" x="239.5" y="-829" font-family="Segoe UI" font-size="16.00">1 dòng · snapshot 03/10</text>
</g>
<!-- ingestion_jobs -->
<g id="node6" class="node">
<title>ingestion_jobs</title>
<polygon fill="#e8edf2" stroke="none" points="307.5,-406.8 307.5,-448 658.5,-448 658.5,-406.8 307.5,-406.8"/>
<polygon fill="none" stroke="black" points="307.5,-406.8 307.5,-448 658.5,-448 658.5,-406.8 307.5,-406.8"/>
<text xml:space="preserve" text-anchor="start" x="318.5" y="-423.6" font-family="Segoe UI" font-weight="bold" font-size="16.00">ingestion_jobs</text>
<polygon fill="none" stroke="black" points="307.5,-365.6 307.5,-406.8 658.5,-406.8 658.5,-365.6 307.5,-365.6"/>
<text xml:space="preserve" text-anchor="start" x="318.5" y="-379.8" font-family="Segoe UI" font-size="16.00">115 dòng · snapshot 03/10</text>
<polygon fill="none" stroke="black" points="307.5,-328 307.5,-365.6 658.5,-365.6 658.5,-328 307.5,-328"/>
<text xml:space="preserve" text-anchor="start" x="318.5" y="-341.6" font-family="Segoe UI" font-size="13.00">FK version_id/embedding_model_id</text>
<polygon fill="none" stroke="black" points="307.5,-290.4 307.5,-328 658.5,-328 658.5,-290.4 307.5,-290.4"/>
<text xml:space="preserve" text-anchor="start" x="318.5" y="-304" font-family="Segoe UI" font-size="13.00">idempotency_key; status; expected/completed_chunks</text>
</g>
<!-- knowledge_chunks -->
<g id="node7" class="node">
<title>knowledge_chunks</title>
<polygon fill="#e4eeff" stroke="none" points="0,-425.6 0,-466.8 260,-466.8 260,-425.6 0,-425.6"/>
<polygon fill="none" stroke="black" points="0,-425.6 0,-466.8 260,-466.8 260,-425.6 0,-425.6"/>
<text xml:space="preserve" text-anchor="start" x="11" y="-442.4" font-family="Segoe UI" font-weight="bold" font-size="16.00">knowledge_chunks</text>
<polygon fill="none" stroke="black" points="0,-384.4 0,-425.6 260,-425.6 260,-384.4 0,-384.4"/>
<text xml:space="preserve" text-anchor="start" x="11" y="-398.6" font-family="Segoe UI" font-size="16.00">279 dòng · snapshot 03/10</text>
<polygon fill="none" stroke="black" points="0,-346.8 0,-384.4 260,-384.4 260,-346.8 0,-346.8"/>
<text xml:space="preserve" text-anchor="start" x="11" y="-360.4" font-family="Segoe UI" font-size="13.00">PK id; FK version_id</text>
<polygon fill="none" stroke="black" points="0,-309.2 0,-346.8 260,-346.8 260,-309.2 0,-309.2"/>
<text xml:space="preserve" text-anchor="start" x="11" y="-322.8" font-family="Segoe UI" font-size="13.00">UNIQUE(version_id,ordinal)</text>
<polygon fill="none" stroke="black" points="0,-271.6 0,-309.2 260,-309.2 260,-271.6 0,-271.6"/>
<text xml:space="preserve" text-anchor="start" x="11" y="-285.2" font-family="Segoe UI" font-size="13.00">text_content; heading_path; search_tsv</text>
</g>
<!-- embedding_models -->
<g id="node8" class="node">
<title>embedding_models</title>
<polygon fill="#e0f5eb" stroke="none" points="574,-678.4 574,-719.6 872,-719.6 872,-678.4 574,-678.4"/>
<polygon fill="none" stroke="black" points="574,-678.4 574,-719.6 872,-719.6 872,-678.4 574,-678.4"/>
<text xml:space="preserve" text-anchor="start" x="585" y="-695.2" font-family="Segoe UI" font-weight="bold" font-size="16.00">embedding_models</text>
<polygon fill="none" stroke="black" points="574,-637.2 574,-678.4 872,-678.4 872,-637.2 574,-637.2"/>
<text xml:space="preserve" text-anchor="start" x="585" y="-651.4" font-family="Segoe UI" font-size="16.00">1 dòng · snapshot 03/10</text>
<polygon fill="none" stroke="black" points="574,-599.6 574,-637.2 872,-637.2 872,-599.6 574,-599.6"/>
<text xml:space="preserve" text-anchor="start" x="585" y="-613.2" font-family="Segoe UI" font-size="13.00">text&#45;embedding&#45;3&#45;large · v1</text>
<polygon fill="none" stroke="black" points="574,-562 574,-599.6 872,-599.6 872,-562 574,-562"/>
<text xml:space="preserve" text-anchor="start" x="585" y="-575.6" font-family="Segoe UI" font-size="13.00">dimension=1536; metric=cosine; active=true</text>
</g>
<!-- knowledge_embeddings -->
<g id="node9" class="node">
<title>knowledge_embeddings</title>
<polygon fill="#e4eeff" stroke="none" points="328.5,-154 328.5,-195.2 555.5,-195.2 555.5,-154 328.5,-154"/>
<polygon fill="none" stroke="black" points="328.5,-154 328.5,-195.2 555.5,-195.2 555.5,-154 328.5,-154"/>
<text xml:space="preserve" text-anchor="start" x="339.5" y="-170.8" font-family="Segoe UI" font-weight="bold" font-size="16.00">knowledge_embeddings</text>
<polygon fill="none" stroke="black" points="328.5,-112.8 328.5,-154 555.5,-154 555.5,-112.8 328.5,-112.8"/>
<text xml:space="preserve" text-anchor="start" x="339.5" y="-127" font-family="Segoe UI" font-size="16.00">279 dòng · snapshot 03/10</text>
<polygon fill="none" stroke="black" points="328.5,-75.2 328.5,-112.8 555.5,-112.8 555.5,-75.2 328.5,-75.2"/>
<text xml:space="preserve" text-anchor="start" x="339.5" y="-88.8" font-family="Segoe UI" font-size="13.00">PK id; FK chunk_id/model_id</text>
<polygon fill="none" stroke="black" points="328.5,-37.6 328.5,-75.2 555.5,-75.2 555.5,-37.6 328.5,-37.6"/>
<text xml:space="preserve" text-anchor="start" x="339.5" y="-51.2" font-family="Segoe UI" font-size="13.00">embedding vector(1536)</text>
<polygon fill="none" stroke="black" points="328.5,0 328.5,-37.6 555.5,-37.6 555.5,0 328.5,0"/>
<text xml:space="preserve" text-anchor="start" x="339.5" y="-13.6" font-family="Segoe UI" font-size="13.00">UNIQUE(chunk_id,model_id)</text>
</g>
<!-- legend -->
<g id="node10" class="node">
<title>legend</title>
<polygon fill="#f3f5f8" stroke="none" points="733,-1399.2 733,-1440.4 1131,-1440.4 1131,-1399.2 733,-1399.2"/>
<polygon fill="none" stroke="black" points="733,-1399.2 733,-1440.4 1131,-1440.4 1131,-1399.2 733,-1399.2"/>
<text xml:space="preserve" text-anchor="start" x="744" y="-1416" font-family="Segoe UI" font-weight="bold" font-size="16.00">CÁCH ĐỌC</text>
<polygon fill="none" stroke="black" points="733,-1358 733,-1399.2 1131,-1399.2 1131,-1358 733,-1358"/>
<text xml:space="preserve" text-anchor="start" x="744" y="-1372.2" font-family="Segoe UI" font-size="16.00">Một chunk có 1 vector/model; snapshot có 1 model.</text>
<polygon fill="none" stroke="black" points="733,-1320.4 733,-1358 1131,-1358 1131,-1320.4 733,-1320.4"/>
<text xml:space="preserve" text-anchor="start" x="744" y="-1334" font-family="Segoe UI" font-size="13.00">Snapshot 03/10/2026 · code kiểm ngày 04/10</text>
<polygon fill="none" stroke="black" points="733,-1282.8 733,-1320.4 1131,-1320.4 1131,-1282.8 733,-1282.8"/>
<text xml:space="preserve" text-anchor="start" x="744" y="-1296.4" font-family="Segoe UI" font-size="13.00">FK vẽ CHA → CON (con giữ khóa ngoại)</text>
<polygon fill="none" stroke="black" points="733,-1245.2 733,-1282.8 1131,-1282.8 1131,-1245.2 733,-1245.2"/>
<text xml:space="preserve" text-anchor="start" x="744" y="-1258.8" font-family="Segoe UI" font-size="13.00">Nét đứt: bước ứng dụng / API, không phải FK</text>
</g>
</g>
</svg>
