<?xml version="1.0" encoding="UTF-8" standalone="no"?>
<!DOCTYPE svg PUBLIC "-//W3C//DTD SVG 1.1//EN"
 "http://www.w3.org/Graphics/SVG/1.1/DTD/svg11.dtd">
<!-- Generated by graphviz version 16.1.0 (20260904.0139)
 -->
<!-- Title: G Pages: 1 -->
<svg width="1692pt" height="1722pt"
 viewBox="0.00 0.00 1692.00 1722.00" xmlns="http://www.w3.org/2000/svg" xmlns:xlink="http://www.w3.org/1999/xlink">
<g id="graph0" class="graph" transform="scale(1 1) rotate(0) translate(36 1686.4)">
<title>G</title>
<polygon fill="#ffffff" stroke="none" points="-36,36 -36,-1686.4 1656,-1686.4 1656,36 -36,36"/>
<text xml:space="preserve" text-anchor="middle" x="810" y="-1625.7" font-family="Segoe UI" font-size="23.00">DATA / BQL · DUYỆT TRI THỨC VÀ ĐƯỜNG NẠP LẠI</text>
<!-- tickets&#45;&gt;memory_candidates -->
<g id="edge10" class="edge">
<title>tickets&#45;&gt;memory_candidates</title>
<path fill="none" stroke="#53657b" stroke-width="1.4" d="M380.06,-1476.18C385.12,-1442.81 392.51,-1394.06 398.9,-1351.86"/>
<polygon fill="#53657b" stroke="#53657b" stroke-width="1.4" points="401.31,-1352.34 399.93,-1345.05 396.46,-1351.61 401.31,-1352.34"/>
<text xml:space="preserve" text-anchor="middle" x="434.93" y="-1377.8" font-family="Segoe UI" font-size="12.00">source_ticket_id</text>
</g>
<!-- agent_runs&#45;&gt;agent_runs -->
<g id="edge1" class="edge">
<title>agent_runs&#45;&gt;agent_runs</title>
<path fill="none" stroke="#53657b" stroke-width="1.4" d="M739.44,-1542.38C766.3,-1540.78 786.5,-1532.38 786.5,-1517.2 786.5,-1503.74 770.61,-1495.61 748.29,-1492.83"/>
<polygon fill="#53657b" stroke="#53657b" stroke-width="1.4" points="748.74,-1490.41 741.55,-1492.21 748.3,-1495.29 748.74,-1490.41"/>
<text xml:space="preserve" text-anchor="middle" x="820.16" y="-1513.6" font-family="Segoe UI" font-size="12.00">parent_run_id</text>
</g>
<!-- agent_runs&#45;&gt;memory_candidates -->
<g id="edge9" class="edge">
<title>agent_runs&#45;&gt;memory_candidates</title>
<path fill="none" stroke="#53657b" stroke-width="1.4" d="M599.42,-1476.18C569.25,-1442.25 524.95,-1392.43 486.99,-1349.74"/>
<polygon fill="#53657b" stroke="#53657b" stroke-width="1.4" points="488.85,-1348.14 482.37,-1344.54 485.19,-1351.4 488.85,-1348.14"/>
<text xml:space="preserve" text-anchor="middle" x="551.14" y="-1377.8" font-family="Segoe UI" font-size="12.00">source_run_id</text>
</g>
<!-- access_scopes&#45;&gt;memory_candidates -->
<g id="edge8" class="edge">
<title>access_scopes&#45;&gt;memory_candidates</title>
<path fill="none" stroke="#53657b" stroke-width="1.4" d="M157.35,-1476.18C198.68,-1441.97 259.52,-1391.61 311.37,-1348.69"/>
<polygon fill="#53657b" stroke="#53657b" stroke-width="1.4" points="312.84,-1350.66 316.67,-1344.31 309.71,-1346.88 312.84,-1350.66"/>
<text xml:space="preserve" text-anchor="middle" x="299.97" y="-1377.8" font-family="Segoe UI" font-size="12.00">scope_id</text>
</g>
<!-- memory_namespaces&#45;&gt;memory_candidates -->
<g id="edge7" class="edge">
<title>memory_namespaces&#45;&gt;memory_candidates</title>
<path fill="none" stroke="#53657b" stroke-width="1.4" d="M922.83,-1476.07C887.66,-1449.53 848,-1419.6 848,-1419.6 848,-1419.6 683.14,-1361.29 556.17,-1316.39"/>
<polygon fill="#53657b" stroke="#53657b" stroke-width="1.4" points="557.28,-1314.18 549.86,-1314.16 555.64,-1318.8 557.28,-1314.18"/>
<text xml:space="preserve" text-anchor="middle" x="787.81" y="-1377.8" font-family="Segoe UI" font-size="12.00">namespace_id</text>
</g>
<!-- memory_namespaces&#45;&gt;memory_publications -->
<g id="edge15" class="edge">
<title>memory_namespaces&#45;&gt;memory_publications</title>
<path fill="none" stroke="#53657b" stroke-width="1.4" d="M999.3,-1476.18C1040.52,-1405.38 1122,-1265.4 1122,-1265.4 1122,-1265.4 1122,-1265.4 1122,-236.6 1122,-236.6 956.78,-144.04 854.35,-86.66"/>
<polygon fill="#53657b" stroke="#53657b" stroke-width="1.4" points="855.63,-84.56 848.33,-83.28 853.24,-88.84 855.63,-84.56"/>
<text xml:space="preserve" text-anchor="middle" x="1155.98" y="-668.6" font-family="Segoe UI" font-size="12.00">namespace_id</text>
</g>
<!-- memory_namespaces&#45;&gt;knowledge_documents -->
<g id="edge4" class="edge">
<title>memory_namespaces&#45;&gt;knowledge_documents</title>
<path fill="none" stroke="#53657b" stroke-width="1.4" d="M969.78,-1476.18C958.77,-1405.38 937,-1265.4 937,-1265.4 937,-1265.4 937,-1265.4 937,-788.2 937,-788.2 909,-665 909,-665 909,-665 891.62,-653.1 871.07,-639.03"/>
<polygon fill="#53657b" stroke="#53657b" stroke-width="1.4" points="872.6,-637.11 865.44,-635.17 869.83,-641.15 872.6,-637.11"/>
<text xml:space="preserve" text-anchor="middle" x="993.98" y="-1023.2" font-family="Segoe UI" font-size="12.00">memory_namespace_id</text>
</g>
<!-- memory_candidates&#45;&gt;memory_candidates -->
<g id="edge11" class="edge">
<title>memory_candidates&#45;&gt;memory_candidates</title>
<path fill="none" stroke="#53657b" stroke-width="1.4" d="M547.67,-1285.5C575.25,-1283.2 595,-1276.17 595,-1264.4 595,-1253.96 579.47,-1247.25 556.72,-1244.26"/>
<polygon fill="#53657b" stroke="#53657b" stroke-width="1.4" points="557,-1241.83 549.78,-1243.52 556.48,-1246.7 557,-1241.83"/>
<text xml:space="preserve" text-anchor="middle" x="654.65" y="-1260.8" font-family="Segoe UI" font-size="12.00">supersedes_candidate_id</text>
</g>
<!-- memory_candidates&#45;&gt;knowledge_reviews -->
<g id="edge6" class="edge">
<title>memory_candidates&#45;&gt;knowledge_reviews</title>
<path fill="none" stroke="#53657b" stroke-width="1.4" d="M412,-1185.6C412,-1116.98 412,-1027.8 412,-1027.8 412,-1027.8 412,-1027.8 412,-433 412,-433 442.29,-376.38 470.18,-324.25"/>
<polygon fill="#53657b" stroke="#53657b" stroke-width="1.4" points="472.31,-325.47 473.45,-318.14 467.99,-323.16 472.31,-325.47"/>
<text xml:space="preserve" text-anchor="middle" x="465.65" y="-668.6" font-family="Segoe UI" font-size="12.00">memory_candidate_id</text>
</g>
<!-- memory_candidates&#45;&gt;memory_publications -->
<g id="edge13" class="edge">
<title>memory_candidates&#45;&gt;memory_publications</title>
<path fill="none" stroke="#53657b" stroke-width="1.4" d="M368.41,-1185.6C329.96,-1116.98 280,-1027.8 280,-1027.8 280,-1027.8 280,-1027.8 280,-236.6 280,-236.6 328,-158.8 328,-158.8 328,-158.8 529.72,-106.18 662.14,-71.64"/>
<polygon fill="#53657b" stroke="#53657b" stroke-width="1.4" points="662.56,-74.06 668.71,-69.93 661.32,-69.32 662.56,-74.06"/>
<text xml:space="preserve" text-anchor="middle" x="310.65" y="-589.2" font-family="Segoe UI" font-size="12.00">candidate_id</text>
</g>
<!-- memory_candidates&#45;&gt;decision -->
<g id="edge17" class="edge">
<title>memory_candidates&#45;&gt;decision</title>
<path fill="none" stroke="#3268a8" stroke-width="1.4" stroke-dasharray="5,2" d="M494.88,-1185.6C518.87,-1163.09 545.22,-1138.36 569.79,-1115.29"/>
<polygon fill="#3268a8" stroke="#3268a8" stroke-width="1.4" points="571.36,-1117.18 574.79,-1110.6 568,-1113.61 571.36,-1117.18"/>
<text xml:space="preserve" text-anchor="middle" x="616.49" y="-1143.8" font-family="Segoe UI" font-size="12.00">xử lý candidate, không phải FK</text>
</g>
<!-- knowledge_reviews&#45;&gt;memory_publications -->
<g id="edge12" class="edge">
<title>knowledge_reviews&#45;&gt;memory_publications</title>
<path fill="none" stroke="#53657b" stroke-width="1.4" d="M596.72,-158.93C622.29,-134.32 644.04,-113.4 644.04,-113.4 644.04,-113.4 666.7,-101.08 693.17,-86.69"/>
<polygon fill="#53657b" stroke="#53657b" stroke-width="1.4" points="694.26,-88.89 699.24,-83.39 691.92,-84.58 694.26,-88.89"/>
<text xml:space="preserve" text-anchor="middle" x="692.02" y="-117" font-family="Segoe UI" font-size="12.00">approval_review_id</text>
</g>
<!-- knowledge_documents&#45;&gt;memory_publications -->
<g id="edge14" class="edge">
<title>knowledge_documents&#45;&gt;memory_publications</title>
<path fill="none" stroke="#53657b" stroke-width="1.4" d="M822.49,-551.62C829.52,-535.47 836,-520.6 836,-520.6 836,-520.6 836,-506.2 836,-506.2 836,-506.2 823,-158.8 823,-158.8 823,-158.8 808.05,-122.47 794.83,-90.37"/>
<polygon fill="#53657b" stroke="#53657b" stroke-width="1.4" points="797.26,-89.83 792.33,-84.29 792.72,-91.69 797.26,-89.83"/>
<text xml:space="preserve" text-anchor="middle" x="861.87" y="-351" font-family="Segoe UI" font-size="12.00">document_id</text>
</g>
<!-- knowledge_documents&#45;&gt;document_versions -->
<g id="edge2" class="edge">
<title>knowledge_documents&#45;&gt;document_versions</title>
<path fill="none" stroke="#53657b" stroke-width="1.4" d="M781.14,-551.76C767.87,-529.48 754,-506.2 754,-506.2 754,-506.2 744.13,-495.22 732.14,-481.88"/>
<polygon fill="#53657b" stroke="#53657b" stroke-width="1.4" points="734.03,-480.32 727.53,-476.75 730.39,-483.6 734.03,-480.32"/>
<text xml:space="preserve" text-anchor="middle" x="793.88" y="-509.8" font-family="Segoe UI" font-size="12.00">document_id</text>
</g>
<!-- document_versions&#45;&gt;knowledge_reviews -->
<g id="edge5" class="edge">
<title>document_versions&#45;&gt;knowledge_reviews</title>
<path fill="none" stroke="#53657b" stroke-width="1.4" d="M654.37,-393.19C636.11,-372.8 613.16,-347.15 591.22,-322.64"/>
<polygon fill="#53657b" stroke="#53657b" stroke-width="1.4" points="593.28,-321.26 586.78,-317.68 589.63,-324.53 593.28,-321.26"/>
<text xml:space="preserve" text-anchor="middle" x="675.69" y="-351" font-family="Segoe UI" font-size="12.00">document_version_id</text>
</g>
<!-- document_versions&#45;&gt;memory_publications -->
<g id="edge16" class="edge">
<title>document_versions&#45;&gt;memory_publications</title>
<path fill="none" stroke="#53657b" stroke-width="1.4" d="M717.65,-392.82C728.76,-376.67 739,-361.8 739,-361.8 739,-361.8 759.38,-180.84 769.48,-91.25"/>
<polygon fill="#53657b" stroke="#53657b" stroke-width="1.4" points="771.89,-91.69 770.24,-84.46 767.02,-91.14 771.89,-91.69"/>
<text xml:space="preserve" text-anchor="middle" x="787.08" y="-234" font-family="Segoe UI" font-size="12.00">version_id</text>
</g>
<!-- document_versions&#45;&gt;knowledge_documents -->
<g id="edge3" class="edge">
<title>document_versions&#45;&gt;knowledge_documents</title>
<path fill="none" stroke="#53657b" stroke-width="1.4" d="M671.77,-475.18C664.44,-491.33 657.69,-506.2 657.69,-506.2 657.69,-506.2 657.69,-520.6 657.69,-520.6 657.69,-520.6 683.62,-533.13 713.72,-547.68"/>
<polygon fill="#53657b" stroke="#53657b" stroke-width="1.4" points="712.6,-549.86 719.97,-550.7 714.73,-545.45 712.6,-549.86"/>
<text xml:space="preserve" text-anchor="middle" x="700.35" y="-509.8" font-family="Segoe UI" font-size="12.00">active_version_id</text>
</g>
<!-- export&#45;&gt;knowledge_documents -->
<g id="edge19" class="edge">
<title>export&#45;&gt;knowledge_documents</title>
<path fill="none" stroke="#3268a8" stroke-width="1.4" stroke-dasharray="5,2" d="M748.67,-710.53C759.65,-685.92 768.99,-665 768.99,-665 768.99,-665 774.25,-654.61 780.74,-641.76"/>
<polygon fill="#3268a8" stroke="#3268a8" stroke-width="1.4" points="782.75,-643.22 783.72,-635.87 778.38,-641.01 782.75,-643.22"/>
<text xml:space="preserve" text-anchor="middle" x="835.5" y="-668.6" font-family="Segoe UI" font-size="12.00">publish.ts (không phải FK)</text>
</g>
<!-- decision&#45;&gt;export -->
<g id="edge18" class="edge">
<title>decision&#45;&gt;export</title>
<path fill="none" stroke="#3268a8" stroke-width="1.4" stroke-dasharray="5,2" d="M680.55,-944.72C685.31,-922.75 690.47,-898.88 695.29,-876.62"/>
<polygon fill="#3268a8" stroke="#3268a8" stroke-width="1.4" points="697.66,-877.28 696.74,-869.92 692.87,-876.25 697.66,-877.28"/>
<text xml:space="preserve" text-anchor="middle" x="739.18" y="-902.6" font-family="Segoe UI" font-size="12.00">chỉ status approved</text>
</g>
<!-- tickets -->
<g id="node1" class="node">
<title>tickets</title>
<polygon fill="#e8edf2" stroke="none" points="265,-1517.2 265,-1558.4 483,-1558.4 483,-1517.2 265,-1517.2"/>
<polygon fill="none" stroke="black" points="265,-1517.2 265,-1558.4 483,-1558.4 483,-1517.2 265,-1517.2"/>
<text xml:space="preserve" text-anchor="start" x="276" y="-1534" font-family="Segoe UI" font-weight="bold" font-size="16.00">tickets</text>
<polygon fill="none" stroke="black" points="265,-1476 265,-1517.2 483,-1517.2 483,-1476 265,-1476"/>
<text xml:space="preserve" text-anchor="start" x="276" y="-1490.2" font-family="Segoe UI" font-size="16.00">22 dòng · snapshot 03/10</text>
</g>
<!-- agent_runs -->
<g id="node2" class="node">
<title>agent_runs</title>
<polygon fill="#e8edf2" stroke="none" points="530.5,-1517.2 530.5,-1558.4 739.5,-1558.4 739.5,-1517.2 530.5,-1517.2"/>
<polygon fill="none" stroke="black" points="530.5,-1517.2 530.5,-1558.4 739.5,-1558.4 739.5,-1517.2 530.5,-1517.2"/>
<text xml:space="preserve" text-anchor="start" x="541.5" y="-1534" font-family="Segoe UI" font-weight="bold" font-size="16.00">agent_runs</text>
<polygon fill="none" stroke="black" points="530.5,-1476 530.5,-1517.2 739.5,-1517.2 739.5,-1476 530.5,-1476"/>
<text xml:space="preserve" text-anchor="start" x="541.5" y="-1490.2" font-family="Segoe UI" font-size="16.00">0 dòng · snapshot 03/10</text>
</g>
<!-- access_scopes -->
<g id="node3" class="node">
<title>access_scopes</title>
<polygon fill="#e8edf2" stroke="none" points="0,-1517.2 0,-1558.4 218,-1558.4 218,-1517.2 0,-1517.2"/>
<polygon fill="none" stroke="black" points="0,-1517.2 0,-1558.4 218,-1558.4 218,-1517.2 0,-1517.2"/>
<text xml:space="preserve" text-anchor="start" x="11" y="-1534" font-family="Segoe UI" font-weight="bold" font-size="16.00">access_scopes</text>
<polygon fill="none" stroke="black" points="0,-1476 0,-1517.2 218,-1517.2 218,-1476 0,-1476"/>
<text xml:space="preserve" text-anchor="start" x="11" y="-1490.2" font-family="Segoe UI" font-size="16.00">24 dòng · snapshot 03/10</text>
</g>
<!-- memory_namespaces -->
<g id="node4" class="node">
<title>memory_namespaces</title>
<polygon fill="#f0e5ff" stroke="none" points="871.5,-1517.2 871.5,-1558.4 1080.5,-1558.4 1080.5,-1517.2 871.5,-1517.2"/>
<polygon fill="none" stroke="black" points="871.5,-1517.2 871.5,-1558.4 1080.5,-1558.4 1080.5,-1517.2 871.5,-1517.2"/>
<text xml:space="preserve" text-anchor="start" x="882.5" y="-1534" font-family="Segoe UI" font-weight="bold" font-size="16.00">memory_namespaces</text>
<polygon fill="none" stroke="black" points="871.5,-1476 871.5,-1517.2 1080.5,-1517.2 1080.5,-1476 871.5,-1476"/>
<text xml:space="preserve" text-anchor="start" x="882.5" y="-1490.2" font-family="Segoe UI" font-size="16.00">1 dòng · snapshot 03/10</text>
</g>
<!-- memory_candidates -->
<g id="node5" class="node">
<title>memory_candidates</title>
<polygon fill="#f0e5ff" stroke="none" points="276,-1302 276,-1343.2 548,-1343.2 548,-1302 276,-1302"/>
<polygon fill="none" stroke="black" points="276,-1302 276,-1343.2 548,-1343.2 548,-1302 276,-1302"/>
<text xml:space="preserve" text-anchor="start" x="287" y="-1318.8" font-family="Segoe UI" font-weight="bold" font-size="16.00">memory_candidates</text>
<polygon fill="none" stroke="black" points="276,-1260.8 276,-1302 548,-1302 548,-1260.8 276,-1260.8"/>
<text xml:space="preserve" text-anchor="start" x="287" y="-1275" font-family="Segoe UI" font-size="16.00">4 dòng · snapshot 03/10</text>
<polygon fill="none" stroke="black" points="276,-1223.2 276,-1260.8 548,-1260.8 548,-1223.2 276,-1223.2"/>
<text xml:space="preserve" text-anchor="start" x="287" y="-1236.8" font-family="Segoe UI" font-size="13.00">status; proposed_text; evidence</text>
<polygon fill="none" stroke="black" points="276,-1185.6 276,-1223.2 548,-1223.2 548,-1185.6 276,-1185.6"/>
<text xml:space="preserve" text-anchor="start" x="287" y="-1199.2" font-family="Segoe UI" font-size="13.00">proposal_hash; namespace_id; scope_id</text>
</g>
<!-- knowledge_reviews -->
<g id="node6" class="node">
<title>knowledge_reviews</title>
<polygon fill="#e4eeff" stroke="none" points="351,-275.2 351,-316.4 681,-316.4 681,-275.2 351,-275.2"/>
<polygon fill="none" stroke="black" points="351,-275.2 351,-316.4 681,-316.4 681,-275.2 351,-275.2"/>
<text xml:space="preserve" text-anchor="start" x="362" y="-292" font-family="Segoe UI" font-weight="bold" font-size="16.00">knowledge_reviews</text>
<polygon fill="none" stroke="black" points="351,-234 351,-275.2 681,-275.2 681,-234 351,-234"/>
<text xml:space="preserve" text-anchor="start" x="362" y="-248.2" font-family="Segoe UI" font-size="16.00">3 dòng · snapshot 03/10</text>
<polygon fill="none" stroke="black" points="351,-196.4 351,-234 681,-234 681,-196.4 351,-196.4"/>
<text xml:space="preserve" text-anchor="start" x="362" y="-210" font-family="Segoe UI" font-size="13.00">document_version_id HOẶC memory_candidate_id</text>
<polygon fill="none" stroke="black" points="351,-158.8 351,-196.4 681,-196.4 681,-158.8 351,-158.8"/>
<text xml:space="preserve" text-anchor="start" x="362" y="-172.4" font-family="Segoe UI" font-size="13.00">decision; reviewer_user_id; subject_hash</text>
</g>
<!-- memory_publications -->
<g id="node7" class="node">
<title>memory_publications</title>
<polygon fill="#f0e5ff" stroke="none" points="670.5,-41.2 670.5,-82.4 879.5,-82.4 879.5,-41.2 670.5,-41.2"/>
<polygon fill="none" stroke="black" points="670.5,-41.2 670.5,-82.4 879.5,-82.4 879.5,-41.2 670.5,-41.2"/>
<text xml:space="preserve" text-anchor="start" x="681.5" y="-58" font-family="Segoe UI" font-weight="bold" font-size="16.00">memory_publications</text>
<polygon fill="none" stroke="black" points="670.5,0 670.5,-41.2 879.5,-41.2 879.5,0 670.5,0"/>
<text xml:space="preserve" text-anchor="start" x="681.5" y="-14.2" font-family="Segoe UI" font-size="16.00">0 dòng · snapshot 03/10</text>
</g>
<!-- knowledge_documents -->
<g id="node8" class="node">
<title>knowledge_documents</title>
<polygon fill="#e4eeff" stroke="none" points="691.5,-592.8 691.5,-634 918.5,-634 918.5,-592.8 691.5,-592.8"/>
<polygon fill="none" stroke="black" points="691.5,-592.8 691.5,-634 918.5,-634 918.5,-592.8 691.5,-592.8"/>
<text xml:space="preserve" text-anchor="start" x="702.5" y="-609.6" font-family="Segoe UI" font-weight="bold" font-size="16.00">knowledge_documents</text>
<polygon fill="none" stroke="black" points="691.5,-551.6 691.5,-592.8 918.5,-592.8 918.5,-551.6 691.5,-551.6"/>
<text xml:space="preserve" text-anchor="start" x="702.5" y="-565.8" font-family="Segoe UI" font-size="16.00">116 dòng · snapshot 03/10</text>
</g>
<!-- document_versions -->
<g id="node9" class="node">
<title>document_versions</title>
<polygon fill="#e4eeff" stroke="none" points="576.5,-434 576.5,-475.2 803.5,-475.2 803.5,-434 576.5,-434"/>
<polygon fill="none" stroke="black" points="576.5,-434 576.5,-475.2 803.5,-475.2 803.5,-434 576.5,-434"/>
<text xml:space="preserve" text-anchor="start" x="587.5" y="-450.8" font-family="Segoe UI" font-weight="bold" font-size="16.00">document_versions</text>
<polygon fill="none" stroke="black" points="576.5,-392.8 576.5,-434 803.5,-434 803.5,-392.8 576.5,-392.8"/>
<text xml:space="preserve" text-anchor="start" x="587.5" y="-407" font-family="Segoe UI" font-size="16.00">115 dòng · snapshot 03/10</text>
</g>
<!-- export -->
<g id="node10" class="node">
<title>export</title>
<polygon fill="#fff1d8" stroke="none" points="580.5,-826.8 580.5,-868 847.5,-868 847.5,-826.8 580.5,-826.8"/>
<polygon fill="none" stroke="black" points="580.5,-826.8 580.5,-868 847.5,-868 847.5,-826.8 580.5,-826.8"/>
<text xml:space="preserve" text-anchor="start" x="591.5" y="-843.6" font-family="Segoe UI" font-weight="bold" font-size="16.00">Script xuất → Markdown</text>
<polygon fill="none" stroke="black" points="580.5,-785.6 580.5,-826.8 847.5,-826.8 847.5,-785.6 580.5,-785.6"/>
<text xml:space="preserve" text-anchor="start" x="591.5" y="-799.8" font-family="Segoe UI" font-size="16.00">hoi&#45;dap&#45;ban&#45;quan&#45;ly.md</text>
<polygon fill="none" stroke="black" points="580.5,-748 580.5,-785.6 847.5,-785.6 847.5,-748 580.5,-748"/>
<text xml:space="preserve" text-anchor="start" x="591.5" y="-761.6" font-family="Segoe UI" font-size="13.00">candidate approved → file đúng scope</text>
<polygon fill="none" stroke="black" points="580.5,-710.4 580.5,-748 847.5,-748 847.5,-710.4 580.5,-710.4"/>
<text xml:space="preserve" text-anchor="start" x="591.5" y="-724" font-family="Segoe UI" font-size="13.00">publish.ts nạp lại vào RAG</text>
</g>
<!-- decision -->
<g id="node11" class="node">
<title>decision</title>
<polygon fill="#fff1d8" stroke="none" points="483,-1068 483,-1109.2 843,-1109.2 843,-1068 483,-1068"/>
<polygon fill="none" stroke="black" points="483,-1068 483,-1109.2 843,-1109.2 843,-1068 483,-1068"/>
<text xml:space="preserve" text-anchor="start" x="494" y="-1084.8" font-family="Segoe UI" font-weight="bold" font-size="16.00">Ứng dụng: curator → backend decide</text>
<polygon fill="none" stroke="black" points="483,-1026.8 483,-1068 843,-1068 843,-1026.8 483,-1026.8"/>
<text xml:space="preserve" text-anchor="start" x="494" y="-1041" font-family="Segoe UI" font-size="16.00">Personal / không dùng lại → rejected</text>
<polygon fill="none" stroke="black" points="483,-985.6 483,-1026.8 843,-1026.8 843,-985.6 483,-985.6"/>
<text xml:space="preserve" text-anchor="start" x="494" y="-999.8" font-family="Segoe UI" font-size="16.00">Chung, rủi ro thấp → auto approved</text>
<polygon fill="none" stroke="black" points="483,-944.4 483,-985.6 843,-985.6 843,-944.4 483,-944.4"/>
<text xml:space="preserve" text-anchor="start" x="494" y="-958.6" font-family="Segoe UI" font-size="16.00">Phí / quy định / an toàn → BQL duyệt</text>
</g>
<!-- legend -->
<g id="node12" class="node">
<title>legend</title>
<polygon fill="#f3f5f8" stroke="none" points="1128,-1573.6 1128,-1614.8 1620,-1614.8 1620,-1573.6 1128,-1573.6"/>
<polygon fill="none" stroke="black" points="1128,-1573.6 1128,-1614.8 1620,-1614.8 1620,-1573.6 1128,-1573.6"/>
<text xml:space="preserve" text-anchor="start" x="1139" y="-1590.4" font-family="Segoe UI" font-weight="bold" font-size="16.00">CÁCH ĐỌC</text>
<polygon fill="none" stroke="black" points="1128,-1532.4 1128,-1573.6 1620,-1573.6 1620,-1532.4 1128,-1532.4"/>
<text xml:space="preserve" text-anchor="start" x="1139" y="-1546.6" font-family="Segoe UI" font-size="16.00">4 candidates · 3 reviews · 0 publications; script khác đường chuẩn.</text>
<polygon fill="none" stroke="black" points="1128,-1494.8 1128,-1532.4 1620,-1532.4 1620,-1494.8 1128,-1494.8"/>
<text xml:space="preserve" text-anchor="start" x="1139" y="-1508.4" font-family="Segoe UI" font-size="13.00">Snapshot 03/10/2026 · code kiểm ngày 04/10</text>
<polygon fill="none" stroke="black" points="1128,-1457.2 1128,-1494.8 1620,-1494.8 1620,-1457.2 1128,-1457.2"/>
<text xml:space="preserve" text-anchor="start" x="1139" y="-1470.8" font-family="Segoe UI" font-size="13.00">FK vẽ CHA → CON (con giữ khóa ngoại)</text>
<polygon fill="none" stroke="black" points="1128,-1419.6 1128,-1457.2 1620,-1457.2 1620,-1419.6 1128,-1419.6"/>
<text xml:space="preserve" text-anchor="start" x="1139" y="-1433.2" font-family="Segoe UI" font-size="13.00">Nét đứt: bước ứng dụng / API, không phải FK</text>
</g>
</g>
</svg>
